{
	"asset":{
		"generator":"Khronos glTF Blender I/O v4.3.47",
		"version":"2.0"
	},
	"scene":0,
	"scenes":[
		{
			"name":"Scene",
			"nodes":[
				0,
				1,
				2,
				3,
				4,
				5,
				6,
				7,
				8,
				9
			]
		}
	],
	"nodes":[
		{
			"mesh":0,
			"name":"Cube"
		},
		{
			"mesh":1,
			"name":"Cube.002",
			"translation":[
				0.1084296703338623,
				10.456607818603516,
				-0.16555701196193695
			]
		},
		{
			"mesh":2,
			"name":"Cube.008",
			"scale":[
				0.017553985118865967,
				1.0722565650939941,
				1
			],
			"translation":[
				0.23023295402526855,
				16.79003143310547,
				1.5659688711166382
			]
		},
		{
			"mesh":3,
			"name":"Cube.009",
			"scale":[
				1.4825184345245361,
				1,
				1
			],
			"translation":[
				0.24779009819030762,
				16.769498825073242,
				1.5557981729507446
			]
		},
		{
			"mesh":4,
			"name":"Cube.010",
			"translation":[
				-3.325875759124756,
				4.825655937194824,
				1.688895344734192
			]
		},
		{
			"mesh":5,
			"name":"Cube.011",
			"translation":[
				-1.8690578937530518,
				4.825656414031982,
				1.688895583152771
			]
		},
		{
			"mesh":6,
			"name":"Cube.012",
			"scale":[
				1.4825184345245361,
				1,
				1
			],
			"translation":[
				-2.6670470237731934,
				4.7436442375183105,
				1.5557986497879028
			]
		},
		{
			"mesh":7,
			"name":"Cube.013",
			"translation":[
				2.480315685272217,
				4.825656414031982,
				1.688895583152771
			]
		},
		{
			"mesh":8,
			"name":"Cube.014",
			"translation":[
				3.937134265899658,
				4.825656414031982,
				1.688895583152771
			]
		},
		{
			"mesh":9,
			"name":"Cube.015",
			"scale":[
				1.4825184345245361,
				1,
				1
			],
			"translation":[
				3.1391425132751465,
				4.7436442375183105,
				1.5557986497879028
			]
		}
	],
	"materials":[
		{
			"doubleSided":true,
			"emissiveFactor":[
				0,
				0.47088363766670227,
				1
			],
			"name":"Material.005",
			"pbrMetallicRoughness":{
				"baseColorFactor":[
					0,
					0,
					0,
					1
				]
			}
		},
		{
			"doubleSided":true,
			"name":"Material.004",
			"pbrMetallicRoughness":{
				"baseColorFactor":[
					0.7990977168083191,
					0.7991036176681519,
					0.7991032600402832,
					1
				],
				"metallicFactor":0
			}
		},
		{
			"doubleSided":true,
			"name":"Material.007",
			"pbrMetallicRoughness":{
				"baseColorFactor":[
					0,
					0,
					0,
					1
				],
				"metallicFactor":0,
				"roughnessFactor":0.5
			}
		},
		{
			"doubleSided":true,
			"name":"Material.001",
			"pbrMetallicRoughness":{
				"baseColorFactor":[
					0.800000011920929,
					0.800000011920929,
					0.800000011920929,
					1
				],
				"metallicFactor":0,
				"roughnessFactor":0.18636363744735718
			}
		}
	],
	"meshes":[
		{
			"name":"Cube",
			"primitives":[
				{
					"attributes":{
						"POSITION":0,
						"NORMAL":1,
						"TEXCOORD_0":2
					},
					"indices":3,
					"material":0
				}
			]
		},
		{
			"name":"Cube.002",
			"primitives":[
				{
					"attributes":{
						"POSITION":4,
						"NORMAL":5,
						"TEXCOORD_0":6
					},
					"indices":7,
					"material":1
				},
				{
					"attributes":{
						"POSITION":8,
						"NORMAL":9,
						"TEXCOORD_0":10
					},
					"indices":11,
					"material":2
				}
			]
		},
		{
			"name":"Cube.008",
			"primitives":[
				{
					"attributes":{
						"POSITION":12,
						"NORMAL":13,
						"TEXCOORD_0":14
					},
					"indices":15
				}
			]
		},
		{
			"name":"Cube.009",
			"primitives":[
				{
					"attributes":{
						"POSITION":16,
						"NORMAL":17,
						"TEXCOORD_0":18
					},
					"indices":19,
					"material":3
				}
			]
		},
		{
			"name":"Cube.010",
			"primitives":[
				{
					"attributes":{
						"POSITION":20,
						"NORMAL":21,
						"TEXCOORD_0":22
					},
					"indices":23
				}
			]
		},
		{
			"name":"Cube.011",
			"primitives":[
				{
					"attributes":{
						"POSITION":24,
						"NORMAL":25,
						"TEXCOORD_0":26
					},
					"indices":23
				}
			]
		},
		{
			"name":"Cube.012",
			"primitives":[
				{
					"attributes":{
						"POSITION":27,
						"NORMAL":28,
						"TEXCOORD_0":29
					},
					"indices":30,
					"material":3
				}
			]
		},
		{
			"name":"Cube.013",
			"primitives":[
				{
					"attributes":{
						"POSITION":31,
						"NORMAL":32,
						"TEXCOORD_0":33
					},
					"indices":23
				}
			]
		},
		{
			"name":"Cube.014",
			"primitives":[
				{
					"attributes":{
						"POSITION":34,
						"NORMAL":35,
						"TEXCOORD_0":36
					},
					"indices":23
				}
			]
		},
		{
			"name":"Cube.015",
			"primitives":[
				{
					"attributes":{
						"POSITION":37,
						"NORMAL":38,
						"TEXCOORD_0":39
					},
					"indices":30,
					"material":3
				}
			]
		}
	],
	"accessors":[
		{
			"bufferView":0,
			"componentType":5126,
			"count":24,
			"max":[
				70.55908203125,
				18.491744995117188,
				134.9568328857422
			],
			"min":[
				-70.07546997070312,
				0.0899667739868164,
				1.7608009576797485
			],
			"type":"VEC3"
		},
		{
			"bufferView":1,
			"componentType":5126,
			"count":24,
			"type":"VEC3"
		},
		{
			"bufferView":2,
			"componentType":5126,
			"count":24,
			"type":"VEC2"
		},
		{
			"bufferView":3,
			"componentType":5123,
			"count":36,
			"type":"SCALAR"
		},
		{
			"bufferView":4,
			"componentType":5126,
			"count":439,
			"max":[
				6.221800804138184,
				8.459419250488281,
				1.915556788444519
			],
			"min":[
				-5.97819709777832,
				-10.440581321716309,
				-1.5844427347183228
			],
			"type":"VEC3"
		},
		{
			"bufferView":5,
			"componentType":5126,
			"count":439,
			"type":"VEC3"
		},
		{
			"bufferView":6,
			"componentType":5126,
			"count":439,
			"type":"VEC2"
		},
		{
			"bufferView":7,
			"componentType":5123,
			"count":2016,
			"type":"SCALAR"
		},
		{
			"bufferView":8,
			"componentType":5126,
			"count":80,
			"max":[
				5.393259048461914,
				8.057151794433594,
				1.915556788444519
			],
			"min":[
				-5.149652481079102,
				-9.308903694152832,
				-1.5844427347183228
			],
			"type":"VEC3"
		},
		{
			"bufferView":9,
			"componentType":5126,
			"count":80,
			"type":"VEC3"
		},
		{
			"bufferView":10,
			"componentType":5126,
			"count":80,
			"type":"VEC2"
		},
		{
			"bufferView":11,
			"componentType":5123,
			"count":384,
			"type":"SCALAR"
		},
		{
			"bufferView":12,
			"componentType":5126,
			"count":24,
			"max":[
				5.271455764770508,
				1.7237282991409302,
				0.1238323301076889
			],
			"min":[
				-5.271455764770508,
				-1.7237285375595093,
				-0.1238323301076889
			],
			"type":"VEC3"
		},
		{
			"bufferView":13,
			"componentType":5126,
			"count":24,
			"type":"VEC3"
		},
		{
			"bufferView":14,
			"componentType":5126,
			"count":24,
			"type":"VEC2"
		},
		{
			"bufferView":15,
			"componentType":5123,
			"count":36,
			"type":"SCALAR"
		},
		{
			"bufferView":16,
			"componentType":5126,
			"count":1024,
			"max":[
				3.5406546592712402,
				1.5240381956100464,
				0.18817059695720673
			],
			"min":[
				-3.5406546592712402,
				-1.524038553237915,
				-0.18817074596881866
			],
			"type":"VEC3"
		},
		{
			"bufferView":17,
			"componentType":5126,
			"count":1024,
			"type":"VEC3"
		},
		{
			"bufferView":18,
			"componentType":5126,
			"count":1024,
			"type":"VEC2"
		},
		{
			"bufferView":19,
			"componentType":5123,
			"count":6048,
			"type":"SCALAR"
		},
		{
			"bufferView":20,
			"componentType":5126,
			"count":8,
			"max":[
				0.05063056945800781,
				3.5863189697265625,
				0.011146187782287598
			],
			"min":[
				-0.05063056945800781,
				-3.586317777633667,
				-0.011145710945129395
			],
			"type":"VEC3"
		},
		{
			"bufferView":21,
			"componentType":5126,
			"count":8,
			"type":"VEC3"
		},
		{
			"bufferView":22,
			"componentType":5126,
			"count":8,
			"type":"VEC2"
		},
		{
			"bufferView":23,
			"componentType":5123,
			"count":36,
			"type":"SCALAR"
		},
		{
			"bufferView":24,
			"componentType":5126,
			"count":8,
			"max":[
				0.05063056945800781,
				3.5863184928894043,
				0.011145949363708496
			],
			"min":[
				-0.05063056945800781,
				-3.586318254470825,
				-0.011145949363708496
			],
			"type":"VEC3"
		},
		{
			"bufferView":25,
			"componentType":5126,
			"count":8,
			"type":"VEC3"
		},
		{
			"bufferView":26,
			"componentType":5126,
			"count":8,
			"type":"VEC2"
		},
		{
			"bufferView":27,
			"componentType":5126,
			"count":2688,
			"max":[
				1.4709014892578125,
				3.292999505996704,
				0.17726022005081177
			],
			"min":[
				-1.470900535583496,
				-3.2929959297180176,
				-0.17726129293441772
			],
			"type":"VEC3"
		},
		{
			"bufferView":28,
			"componentType":5126,
			"count":2688,
			"type":"VEC3"
		},
		{
			"bufferView":29,
			"componentType":5126,
			"count":2688,
			"type":"VEC2"
		},
		{
			"bufferView":30,
			"componentType":5123,
			"count":15876,
			"type":"SCALAR"
		},
		{
			"bufferView":31,
			"componentType":5126,
			"count":8,
			"max":[
				0.05063056945800781,
				3.5863184928894043,
				0.011145949363708496
			],
			"min":[
				-0.05063056945800781,
				-3.586318254470825,
				-0.011145949363708496
			],
			"type":"VEC3"
		},
		{
			"bufferView":32,
			"componentType":5126,
			"count":8,
			"type":"VEC3"
		},
		{
			"bufferView":33,
			"componentType":5126,
			"count":8,
			"type":"VEC2"
		},
		{
			"bufferView":34,
			"componentType":5126,
			"count":8,
			"max":[
				0.05063056945800781,
				3.5863184928894043,
				0.011145949363708496
			],
			"min":[
				-0.05063056945800781,
				-3.586318254470825,
				-0.011145949363708496
			],
			"type":"VEC3"
		},
		{
			"bufferView":35,
			"componentType":5126,
			"count":8,
			"type":"VEC3"
		},
		{
			"bufferView":36,
			"componentType":5126,
			"count":8,
			"type":"VEC2"
		},
		{
			"bufferView":37,
			"componentType":5126,
			"count":2688,
			"max":[
				1.4709014892578125,
				3.292999505996704,
				0.17726022005081177
			],
			"min":[
				-1.470900535583496,
				-3.2929959297180176,
				-0.17726129293441772
			],
			"type":"VEC3"
		},
		{
			"bufferView":38,
			"componentType":5126,
			"count":2688,
			"type":"VEC3"
		},
		{
			"bufferView":39,
			"componentType":5126,
			"count":2688,
			"type":"VEC2"
		}
	],
	"bufferViews":[
		{
			"buffer":0,
			"byteLength":288,
			"byteOffset":0,
			"target":34962
		},
		{
			"buffer":0,
			"byteLength":288,
			"byteOffset":288,
			"target":34962
		},
		{
			"buffer":0,
			"byteLength":192,
			"byteOffset":576,
			"target":34962
		},
		{
			"buffer":0,
			"byteLength":72,
			"byteOffset":768,
			"target":34963
		},
		{
			"buffer":0,
			"byteLength":5268,
			"byteOffset":840,
			"target":34962
		},
		{
			"buffer":0,
			"byteLength":5268,
			"byteOffset":6108,
			"target":34962
		},
		{
			"buffer":0,
			"byteLength":3512,
			"byteOffset":11376,
			"target":34962
		},
		{
			"buffer":0,
			"byteLength":4032,
			"byteOffset":14888,
			"target":34963
		},
		{
			"buffer":0,
			"byteLength":960,
			"byteOffset":18920,
			"target":34962
		},
		{
			"buffer":0,
			"byteLength":960,
			"byteOffset":19880,
			"target":34962
		},
		{
			"buffer":0,
			"byteLength":640,
			"byteOffset":20840,
			"target":34962
		},
		{
			"buffer":0,
			"byteLength":768,
			"byteOffset":21480,
			"target":34963
		},
		{
			"buffer":0,
			"byteLength":288,
			"byteOffset":22248,
			"target":34962
		},
		{
			"buffer":0,
			"byteLength":288,
			"byteOffset":22536,
			"target":34962
		},
		{
			"buffer":0,
			"byteLength":192,
			"byteOffset":22824,
			"target":34962
		},
		{
			"buffer":0,
			"byteLength":72,
			"byteOffset":23016,
			"target":34963
		},
		{
			"buffer":0,
			"byteLength":12288,
			"byteOffset":23088,
			"target":34962
		},
		{
			"buffer":0,
			"byteLength":12288,
			"byteOffset":35376,
			"target":34962
		},
		{
			"buffer":0,
			"byteLength":8192,
			"byteOffset":47664,
			"target":34962
		},
		{
			"buffer":0,
			"byteLength":12096,
			"byteOffset":55856,
			"target":34963
		},
		{
			"buffer":0,
			"byteLength":96,
			"byteOffset":67952,
			"target":34962
		},
		{
			"buffer":0,
			"byteLength":96,
			"byteOffset":68048,
			"target":34962
		},
		{
			"buffer":0,
			"byteLength":64,
			"byteOffset":68144,
			"target":34962
		},
		{
			"buffer":0,
			"byteLength":72,
			"byteOffset":68208,
			"target":34963
		},
		{
			"buffer":0,
			"byteLength":96,
			"byteOffset":68280,
			"target":34962
		},
		{
			"buffer":0,
			"byteLength":96,
			"byteOffset":68376,
			"target":34962
		},
		{
			"buffer":0,
			"byteLength":64,
			"byteOffset":68472,
			"target":34962
		},
		{
			"buffer":0,
			"byteLength":32256,
			"byteOffset":68536,
			"target":34962
		},
		{
			"buffer":0,
			"byteLength":32256,
			"byteOffset":100792,
			"target":34962
		},
		{
			"buffer":0,
			"byteLength":21504,
			"byteOffset":133048,
			"target":34962
		},
		{
			"buffer":0,
			"byteLength":31752,
			"byteOffset":154552,
			"target":34963
		},
		{
			"buffer":0,
			"byteLength":96,
			"byteOffset":186304,
			"target":34962
		},
		{
			"buffer":0,
			"byteLength":96,
			"byteOffset":186400,
			"target":34962
		},
		{
			"buffer":0,
			"byteLength":64,
			"byteOffset":186496,
			"target":34962
		},
		{
			"buffer":0,
			"byteLength":96,
			"byteOffset":186560,
			"target":34962
		},
		{
			"buffer":0,
			"byteLength":96,
			"byteOffset":186656,
			"target":34962
		},
		{
			"buffer":0,
			"byteLength":64,
			"byteOffset":186752,
			"target":34962
		},
		{
			"buffer":0,
			"byteLength":32256,
			"byteOffset":186816,
			"target":34962
		},
		{
			"buffer":0,
			"byteLength":32256,
			"byteOffset":219072,
			"target":34962
		},
		{
			"buffer":0,
			"byteLength":21504,
			"byteOffset":251328,
			"target":34962
		}
	],
	"buffers":[
		{
			"byteLength":272832,
			"uri":"10ton_AC_CC.bin"
		}
	]
}
