{
	"asset":{
		"generator":"Khronos glTF Blender I/O v4.3.47",
		"version":"2.0"
	},
	"scene":0,
	"scenes":[
		{
			"name":"Scene",
			"nodes":[
				0,
				1,
				2,
				3,
				4,
				5,
				6,
				7,
				8,
				9,
				10,
				11,
				12
			]
		}
	],
	"nodes":[
		{
			"name":"Cube"
		},
		{
			"mesh":0,
			"name":"Cube.003",
			"translation":[
				0,
				11.82571029663086,
				-0.15995557606220245
			]
		},
		{
			"mesh":1,
			"name":"Cube.016",
			"translation":[
				0.06776237487792969,
				22.266908645629883,
				3.0714528560638428
			]
		},
		{
			"mesh":2,
			"name":"Cube.017",
			"translation":[
				-3.6455936431884766,
				22.30849838256836,
				3.1391096115112305
			]
		},
		{
			"mesh":3,
			"name":"Cube.018",
			"translation":[
				3.815654754638672,
				22.30849838256836,
				3.1391096115112305
			]
		},
		{
			"mesh":4,
			"name":"Cube.019",
			"rotation":[
				0,
				0,
				-0.7071068286895752,
				0.7071068286895752
			],
			"translation":[
				-0.8543338775634766,
				22.321712493896484,
				2.037498950958252
			]
		},
		{
			"mesh":5,
			"name":"Cube.020",
			"rotation":[
				0,
				0,
				-0.7071068286895752,
				0.7071068286895752
			],
			"translation":[
				6.744171142578125,
				22.321712493896484,
				2.037498950958252
			]
		},
		{
			"mesh":6,
			"name":"pngtree-texture-of-an-air-conditioner-s-radiator-grille-ima",
			"rotation":[
				0.7071068286895752,
				0,
				0,
				0.7071068286895752
			],
			"scale":[
				3.176882743835449,
				4.119751930236816,
				2.7375752925872803
			],
			"translation":[
				3.7098827362060547,
				4.883251190185547,
				3.5563058853149414
			]
		},
		{
			"mesh":7,
			"name":"pngtree-texture-of-an-air-conditioner-s-radiator-grille-ima.001",
			"rotation":[
				0.7071068286895752,
				0,
				0,
				0.7071068286895752
			],
			"scale":[
				3.176882743835449,
				4.119751930236816,
				2.7375752925872803
			],
			"translation":[
				-3.5417919158935547,
				7.779183387756348,
				3.5563058853149414
			]
		},
		{
			"mesh":8,
			"name":"pngtree-texture-of-an-air-conditioner-s-radiator-grille-ima.002",
			"rotation":[
				0.7071068286895752,
				0,
				0,
				0.7071068286895752
			],
			"scale":[
				3.176882743835449,
				4.119751930236816,
				2.7375752925872803
			],
			"translation":[
				3.7098827362060547,
				7.779183387756348,
				3.5563058853149414
			]
		},
		{
			"mesh":9,
			"name":"pngtree-texture-of-an-air-conditioner-s-radiator-grille-ima.003",
			"rotation":[
				0.7071068286895752,
				0,
				0,
				0.7071068286895752
			],
			"scale":[
				3.176882743835449,
				4.119751930236816,
				2.7375752925872803
			],
			"translation":[
				-3.5417919158935547,
				10.757439613342285,
				3.5563058853149414
			]
		},
		{
			"mesh":10,
			"name":"pngtree-texture-of-an-air-conditioner-s-radiator-grille-ima.004",
			"rotation":[
				0.7071068286895752,
				0,
				0,
				0.7071068286895752
			],
			"scale":[
				3.176882743835449,
				4.119751930236816,
				2.7375752925872803
			],
			"translation":[
				3.7098827362060547,
				10.757439613342285,
				3.553220272064209
			]
		},
		{
			"mesh":11,
			"name":"pngtree-texture-of-an-air-conditioner-s-radiator-grille-image_1",
			"rotation":[
				0.7071068286895752,
				0,
				0,
				0.7071068286895752
			],
			"scale":[
				3.176882743835449,
				4.119751930236816,
				2.7375752925872803
			],
			"translation":[
				-3.5417919158935547,
				4.883251190185547,
				3.5563058853149414
			]
		}
	],
	"materials":[
		{
			"doubleSided":true,
			"name":"Material.006",
			"pbrMetallicRoughness":{
				"baseColorFactor":[
					0.7990977168083191,
					0.7991036176681519,
					0.7991032600402832,
					1
				],
				"metallicFactor":0,
				"roughnessFactor":0.5
			}
		},
		{
			"doubleSided":true,
			"name":"Material.008",
			"pbrMetallicRoughness":{
				"baseColorFactor":[
					0,
					0,
					0,
					1
				],
				"metallicFactor":0,
				"roughnessFactor":0.5
			}
		},
		{
			"doubleSided":true,
			"name":"Material.001",
			"pbrMetallicRoughness":{
				"baseColorFactor":[
					0.800000011920929,
					0.800000011920929,
					0.800000011920929,
					1
				],
				"metallicFactor":0,
				"roughnessFactor":0.18636363744735718
			}
		},
		{
			"doubleSided":true,
			"name":"pngtree-texture-of-an-air-conditioner-s-radiator-grille-image_1",
			"pbrMetallicRoughness":{
				"baseColorTexture":{
					"index":0
				},
				"metallicFactor":0,
				"roughnessFactor":0.5
			}
		}
	],
	"meshes":[
		{
			"name":"Cube.003",
			"primitives":[
				{
					"attributes":{
						"POSITION":0,
						"NORMAL":1,
						"TEXCOORD_0":2
					},
					"indices":3,
					"material":0
				},
				{
					"attributes":{
						"POSITION":4,
						"NORMAL":5,
						"TEXCOORD_0":6
					},
					"indices":7,
					"material":1
				}
			]
		},
		{
			"name":"Cube.016",
			"primitives":[
				{
					"attributes":{
						"POSITION":8,
						"NORMAL":9,
						"TEXCOORD_0":10
					},
					"indices":11
				}
			]
		},
		{
			"name":"Cube.017",
			"primitives":[
				{
					"attributes":{
						"POSITION":12,
						"NORMAL":13,
						"TEXCOORD_0":14
					},
					"indices":15,
					"material":2
				}
			]
		},
		{
			"name":"Cube.018",
			"primitives":[
				{
					"attributes":{
						"POSITION":16,
						"NORMAL":17,
						"TEXCOORD_0":18
					},
					"indices":15,
					"material":2
				}
			]
		},
		{
			"name":"Cube.019",
			"primitives":[
				{
					"attributes":{
						"POSITION":19,
						"NORMAL":20,
						"TEXCOORD_0":21
					},
					"indices":22
				}
			]
		},
		{
			"name":"Cube.020",
			"primitives":[
				{
					"attributes":{
						"POSITION":23,
						"NORMAL":24,
						"TEXCOORD_0":25
					},
					"indices":22
				}
			]
		},
		{
			"name":"pngtree-texture-of-an-air-conditioner-s-radiator-grille-ima",
			"primitives":[
				{
					"attributes":{
						"POSITION":26,
						"NORMAL":27,
						"TEXCOORD_0":28
					},
					"indices":29,
					"material":3
				}
			]
		},
		{
			"name":"pngtree-texture-of-an-air-conditioner-s-radiator-grille-ima.001",
			"primitives":[
				{
					"attributes":{
						"POSITION":30,
						"NORMAL":31,
						"TEXCOORD_0":32
					},
					"indices":29,
					"material":3
				}
			]
		},
		{
			"name":"pngtree-texture-of-an-air-conditioner-s-radiator-grille-ima.002",
			"primitives":[
				{
					"attributes":{
						"POSITION":33,
						"NORMAL":34,
						"TEXCOORD_0":35
					},
					"indices":29,
					"material":3
				}
			]
		},
		{
			"name":"pngtree-texture-of-an-air-conditioner-s-radiator-grille-ima.003",
			"primitives":[
				{
					"attributes":{
						"POSITION":36,
						"NORMAL":37,
						"TEXCOORD_0":38
					},
					"indices":29,
					"material":3
				}
			]
		},
		{
			"name":"pngtree-texture-of-an-air-conditioner-s-radiator-grille-ima.004",
			"primitives":[
				{
					"attributes":{
						"POSITION":39,
						"NORMAL":40,
						"TEXCOORD_0":41
					},
					"indices":29,
					"material":3
				}
			]
		},
		{
			"name":"pngtree-texture-of-an-air-conditioner-s-radiator-grille-image_1",
			"primitives":[
				{
					"attributes":{
						"POSITION":42,
						"NORMAL":43,
						"TEXCOORD_0":44
					},
					"indices":29,
					"material":3
				}
			]
		}
	],
	"textures":[
		{
			"sampler":0,
			"source":0
		}
	],
	"images":[
		{
			"mimeType":"image/jpeg",
			"name":"vent.jpg",
			"uri":"textures/vent_jpg.jpg"
		}
	],
	"accessors":[
		{
			"bufferView":0,
			"componentType":5126,
			"count":553,
			"max":[
				7.44996976852417,
				12.803325653076172,
				3.859955310821533
			],
			"min":[
				-7.450031757354736,
				-11.796674728393555,
				-3.5400443077087402
			],
			"type":"VEC3"
		},
		{
			"bufferView":1,
			"componentType":5126,
			"count":553,
			"type":"VEC3"
		},
		{
			"bufferView":2,
			"componentType":5126,
			"count":553,
			"type":"VEC2"
		},
		{
			"bufferView":3,
			"componentType":5123,
			"count":2502,
			"type":"SCALAR"
		},
		{
			"bufferView":4,
			"componentType":5126,
			"count":32,
			"max":[
				7.086889266967773,
				12.072206497192383,
				3.814180850982666
			],
			"min":[
				-7.086936950683594,
				8.810189247131348,
				0.7994823455810547
			],
			"type":"VEC3"
		},
		{
			"bufferView":5,
			"componentType":5126,
			"count":32,
			"type":"VEC3"
		},
		{
			"bufferView":6,
			"componentType":5126,
			"count":32,
			"type":"VEC2"
		},
		{
			"bufferView":7,
			"componentType":5123,
			"count":150,
			"type":"SCALAR"
		},
		{
			"bufferView":8,
			"componentType":5126,
			"count":56,
			"max":[
				0.34943270683288574,
				1.7969121932983398,
				0.3660709857940674
			],
			"min":[
				-0.34943270683288574,
				-1.7969131469726562,
				-0.3660709857940674
			],
			"type":"VEC3"
		},
		{
			"bufferView":9,
			"componentType":5126,
			"count":56,
			"type":"VEC3"
		},
		{
			"bufferView":10,
			"componentType":5126,
			"count":56,
			"type":"VEC2"
		},
		{
			"bufferView":11,
			"componentType":5123,
			"count":324,
			"type":"SCALAR"
		},
		{
			"bufferView":12,
			"componentType":5126,
			"count":768,
			"max":[
				3.3686511516571045,
				1.4224357604980469,
				0.1881713569164276
			],
			"min":[
				-3.3686513900756836,
				-1.4224354028701782,
				-0.18816998600959778
			],
			"type":"VEC3"
		},
		{
			"bufferView":13,
			"componentType":5126,
			"count":768,
			"type":"VEC3"
		},
		{
			"bufferView":14,
			"componentType":5126,
			"count":768,
			"type":"VEC2"
		},
		{
			"bufferView":15,
			"componentType":5123,
			"count":4536,
			"type":"SCALAR"
		},
		{
			"bufferView":16,
			"componentType":5126,
			"count":768,
			"max":[
				3.3686511516571045,
				1.4224357604980469,
				0.1881713569164276
			],
			"min":[
				-3.3686513900756836,
				-1.4224354028701782,
				-0.18816998600959778
			],
			"type":"VEC3"
		},
		{
			"bufferView":17,
			"componentType":5126,
			"count":768,
			"type":"VEC3"
		},
		{
			"bufferView":18,
			"componentType":5126,
			"count":768,
			"type":"VEC2"
		},
		{
			"bufferView":19,
			"componentType":5126,
			"count":128,
			"max":[
				1.808581829071045,
				0.10160226374864578,
				0.18817138671875
			],
			"min":[
				-1.808581829071045,
				-0.10160297900438309,
				-0.1881699562072754
			],
			"type":"VEC3"
		},
		{
			"bufferView":20,
			"componentType":5126,
			"count":128,
			"type":"VEC3"
		},
		{
			"bufferView":21,
			"componentType":5126,
			"count":128,
			"type":"VEC2"
		},
		{
			"bufferView":22,
			"componentType":5123,
			"count":756,
			"type":"SCALAR"
		},
		{
			"bufferView":23,
			"componentType":5126,
			"count":128,
			"max":[
				1.808581829071045,
				0.10160226374864578,
				0.18817138671875
			],
			"min":[
				-1.808581829071045,
				-0.10160297900438309,
				-0.1881699562072754
			],
			"type":"VEC3"
		},
		{
			"bufferView":24,
			"componentType":5126,
			"count":128,
			"type":"VEC3"
		},
		{
			"bufferView":25,
			"componentType":5126,
			"count":128,
			"type":"VEC2"
		},
		{
			"bufferView":26,
			"componentType":5126,
			"count":1024,
			"max":[
				1.0482914447784424,
				0,
				0.5
			],
			"min":[
				-1.0482605695724487,
				0,
				-0.5
			],
			"type":"VEC3"
		},
		{
			"bufferView":27,
			"componentType":5126,
			"count":1024,
			"type":"VEC3"
		},
		{
			"bufferView":28,
			"componentType":5126,
			"count":1024,
			"type":"VEC2"
		},
		{
			"bufferView":29,
			"componentType":5123,
			"count":5766,
			"type":"SCALAR"
		},
		{
			"bufferView":30,
			"componentType":5126,
			"count":1024,
			"max":[
				1.064422607421875,
				0,
				0.5
			],
			"min":[
				-1.0644221305847168,
				0,
				-0.5
			],
			"type":"VEC3"
		},
		{
			"bufferView":31,
			"componentType":5126,
			"count":1024,
			"type":"VEC3"
		},
		{
			"bufferView":32,
			"componentType":5126,
			"count":1024,
			"type":"VEC2"
		},
		{
			"bufferView":33,
			"componentType":5126,
			"count":1024,
			"max":[
				1.0482914447784424,
				0,
				0.5
			],
			"min":[
				-1.0482605695724487,
				0,
				-0.5
			],
			"type":"VEC3"
		},
		{
			"bufferView":34,
			"componentType":5126,
			"count":1024,
			"type":"VEC3"
		},
		{
			"bufferView":35,
			"componentType":5126,
			"count":1024,
			"type":"VEC2"
		},
		{
			"bufferView":36,
			"componentType":5126,
			"count":1024,
			"max":[
				1.064422607421875,
				0,
				0.5
			],
			"min":[
				-1.0644221305847168,
				0,
				-0.5
			],
			"type":"VEC3"
		},
		{
			"bufferView":37,
			"componentType":5126,
			"count":1024,
			"type":"VEC3"
		},
		{
			"bufferView":38,
			"componentType":5126,
			"count":1024,
			"type":"VEC2"
		},
		{
			"bufferView":39,
			"componentType":5126,
			"count":1024,
			"max":[
				1.0482914447784424,
				0,
				0.5
			],
			"min":[
				-1.0482605695724487,
				0,
				-0.5
			],
			"type":"VEC3"
		},
		{
			"bufferView":40,
			"componentType":5126,
			"count":1024,
			"type":"VEC3"
		},
		{
			"bufferView":41,
			"componentType":5126,
			"count":1024,
			"type":"VEC2"
		},
		{
			"bufferView":42,
			"componentType":5126,
			"count":1024,
			"max":[
				1.064422607421875,
				0,
				0.5
			],
			"min":[
				-1.0644221305847168,
				0,
				-0.5
			],
			"type":"VEC3"
		},
		{
			"bufferView":43,
			"componentType":5126,
			"count":1024,
			"type":"VEC3"
		},
		{
			"bufferView":44,
			"componentType":5126,
			"count":1024,
			"type":"VEC2"
		}
	],
	"bufferViews":[
		{
			"buffer":0,
			"byteLength":6636,
			"byteOffset":0,
			"target":34962
		},
		{
			"buffer":0,
			"byteLength":6636,
			"byteOffset":6636,
			"target":34962
		},
		{
			"buffer":0,
			"byteLength":4424,
			"byteOffset":13272,
			"target":34962
		},
		{
			"buffer":0,
			"byteLength":5004,
			"byteOffset":17696,
			"target":34963
		},
		{
			"buffer":0,
			"byteLength":384,
			"byteOffset":22700,
			"target":34962
		},
		{
			"buffer":0,
			"byteLength":384,
			"byteOffset":23084,
			"target":34962
		},
		{
			"buffer":0,
			"byteLength":256,
			"byteOffset":23468,
			"target":34962
		},
		{
			"buffer":0,
			"byteLength":300,
			"byteOffset":23724,
			"target":34963
		},
		{
			"buffer":0,
			"byteLength":672,
			"byteOffset":24024,
			"target":34962
		},
		{
			"buffer":0,
			"byteLength":672,
			"byteOffset":24696,
			"target":34962
		},
		{
			"buffer":0,
			"byteLength":448,
			"byteOffset":25368,
			"target":34962
		},
		{
			"buffer":0,
			"byteLength":648,
			"byteOffset":25816,
			"target":34963
		},
		{
			"buffer":0,
			"byteLength":9216,
			"byteOffset":26464,
			"target":34962
		},
		{
			"buffer":0,
			"byteLength":9216,
			"byteOffset":35680,
			"target":34962
		},
		{
			"buffer":0,
			"byteLength":6144,
			"byteOffset":44896,
			"target":34962
		},
		{
			"buffer":0,
			"byteLength":9072,
			"byteOffset":51040,
			"target":34963
		},
		{
			"buffer":0,
			"byteLength":9216,
			"byteOffset":60112,
			"target":34962
		},
		{
			"buffer":0,
			"byteLength":9216,
			"byteOffset":69328,
			"target":34962
		},
		{
			"buffer":0,
			"byteLength":6144,
			"byteOffset":78544,
			"target":34962
		},
		{
			"buffer":0,
			"byteLength":1536,
			"byteOffset":84688,
			"target":34962
		},
		{
			"buffer":0,
			"byteLength":1536,
			"byteOffset":86224,
			"target":34962
		},
		{
			"buffer":0,
			"byteLength":1024,
			"byteOffset":87760,
			"target":34962
		},
		{
			"buffer":0,
			"byteLength":1512,
			"byteOffset":88784,
			"target":34963
		},
		{
			"buffer":0,
			"byteLength":1536,
			"byteOffset":90296,
			"target":34962
		},
		{
			"buffer":0,
			"byteLength":1536,
			"byteOffset":91832,
			"target":34962
		},
		{
			"buffer":0,
			"byteLength":1024,
			"byteOffset":93368,
			"target":34962
		},
		{
			"buffer":0,
			"byteLength":12288,
			"byteOffset":94392,
			"target":34962
		},
		{
			"buffer":0,
			"byteLength":12288,
			"byteOffset":106680,
			"target":34962
		},
		{
			"buffer":0,
			"byteLength":8192,
			"byteOffset":118968,
			"target":34962
		},
		{
			"buffer":0,
			"byteLength":11532,
			"byteOffset":127160,
			"target":34963
		},
		{
			"buffer":0,
			"byteLength":12288,
			"byteOffset":138692,
			"target":34962
		},
		{
			"buffer":0,
			"byteLength":12288,
			"byteOffset":150980,
			"target":34962
		},
		{
			"buffer":0,
			"byteLength":8192,
			"byteOffset":163268,
			"target":34962
		},
		{
			"buffer":0,
			"byteLength":12288,
			"byteOffset":171460,
			"target":34962
		},
		{
			"buffer":0,
			"byteLength":12288,
			"byteOffset":183748,
			"target":34962
		},
		{
			"buffer":0,
			"byteLength":8192,
			"byteOffset":196036,
			"target":34962
		},
		{
			"buffer":0,
			"byteLength":12288,
			"byteOffset":204228,
			"target":34962
		},
		{
			"buffer":0,
			"byteLength":12288,
			"byteOffset":216516,
			"target":34962
		},
		{
			"buffer":0,
			"byteLength":8192,
			"byteOffset":228804,
			"target":34962
		},
		{
			"buffer":0,
			"byteLength":12288,
			"byteOffset":236996,
			"target":34962
		},
		{
			"buffer":0,
			"byteLength":12288,
			"byteOffset":249284,
			"target":34962
		},
		{
			"buffer":0,
			"byteLength":8192,
			"byteOffset":261572,
			"target":34962
		},
		{
			"buffer":0,
			"byteLength":12288,
			"byteOffset":269764,
			"target":34962
		},
		{
			"buffer":0,
			"byteLength":12288,
			"byteOffset":282052,
			"target":34962
		},
		{
			"buffer":0,
			"byteLength":8192,
			"byteOffset":294340,
			"target":34962
		}
	],
	"samplers":[
		{
			"magFilter":9729,
			"minFilter":9987
		}
	],
	"buffers":[
		{
			"byteLength":302532,
			"uri":"20ton_AC.bin"
		}
	]
}
