{
	"asset":{
		"generator":"Khronos glTF Blender I/O v4.3.47",
		"version":"2.0"
	},
	"scene":0,
	"scenes":[
		{
			"name":"Scene",
			"nodes":[
				0,
				1,
				2,
				3,
				4,
				5,
				6,
				7,
				8,
				9,
				10,
				11,
				12,
				13
			]
		}
	],
	"nodes":[
		{
			"mesh":0,
			"name":"Cube.001"
		},
		{
			"name":"Cube"
		},
		{
			"mesh":1,
			"name":"Cube.003",
			"translation":[
				0,
				11.82571029663086,
				-0.15995557606220245
			]
		},
		{
			"mesh":2,
			"name":"Cube.016",
			"translation":[
				0.06776237487792969,
				22.266908645629883,
				3.0714528560638428
			]
		},
		{
			"mesh":3,
			"name":"Cube.017",
			"translation":[
				-3.6455936431884766,
				22.30849838256836,
				3.1391096115112305
			]
		},
		{
			"mesh":4,
			"name":"Cube.018",
			"translation":[
				3.815654754638672,
				22.30849838256836,
				3.1391096115112305
			]
		},
		{
			"mesh":5,
			"name":"Cube.019",
			"rotation":[
				0,
				0,
				-0.7071068286895752,
				0.7071068286895752
			],
			"translation":[
				-0.8543338775634766,
				22.321712493896484,
				2.037498950958252
			]
		},
		{
			"mesh":6,
			"name":"Cube.020",
			"rotation":[
				0,
				0,
				-0.7071068286895752,
				0.7071068286895752
			],
			"translation":[
				6.744171142578125,
				22.321712493896484,
				2.037498950958252
			]
		},
		{
			"mesh":7,
			"name":"pngtree-texture-of-an-air-conditioner-s-radiator-grille-ima",
			"rotation":[
				0.7071068286895752,
				0,
				0,
				0.7071068286895752
			],
			"scale":[
				3.176882743835449,
				4.119751930236816,
				2.7375752925872803
			],
			"translation":[
				3.7098827362060547,
				4.883251190185547,
				3.5563058853149414
			]
		},
		{
			"mesh":8,
			"name":"pngtree-texture-of-an-air-conditioner-s-radiator-grille-ima.001",
			"rotation":[
				0.7071068286895752,
				0,
				0,
				0.7071068286895752
			],
			"scale":[
				3.176882743835449,
				4.119751930236816,
				2.7375752925872803
			],
			"translation":[
				-3.5417919158935547,
				7.779183387756348,
				3.5563058853149414
			]
		},
		{
			"mesh":9,
			"name":"pngtree-texture-of-an-air-conditioner-s-radiator-grille-ima.002",
			"rotation":[
				0.7071068286895752,
				0,
				0,
				0.7071068286895752
			],
			"scale":[
				3.176882743835449,
				4.119751930236816,
				2.7375752925872803
			],
			"translation":[
				3.7098827362060547,
				7.779183387756348,
				3.5563058853149414
			]
		},
		{
			"mesh":10,
			"name":"pngtree-texture-of-an-air-conditioner-s-radiator-grille-ima.003",
			"rotation":[
				0.7071068286895752,
				0,
				0,
				0.7071068286895752
			],
			"scale":[
				3.176882743835449,
				4.119751930236816,
				2.7375752925872803
			],
			"translation":[
				-3.5417919158935547,
				10.757439613342285,
				3.5563058853149414
			]
		},
		{
			"mesh":11,
			"name":"pngtree-texture-of-an-air-conditioner-s-radiator-grille-ima.004",
			"rotation":[
				0.7071068286895752,
				0,
				0,
				0.7071068286895752
			],
			"scale":[
				3.176882743835449,
				4.119751930236816,
				2.7375752925872803
			],
			"translation":[
				3.7098827362060547,
				10.757439613342285,
				3.553220272064209
			]
		},
		{
			"mesh":12,
			"name":"pngtree-texture-of-an-air-conditioner-s-radiator-grille-image_1",
			"rotation":[
				0.7071068286895752,
				0,
				0,
				0.7071068286895752
			],
			"scale":[
				3.176882743835449,
				4.119751930236816,
				2.7375752925872803
			],
			"translation":[
				-3.5417919158935547,
				4.883251190185547,
				3.5563058853149414
			]
		}
	],
	"materials":[
		{
			"doubleSided":true,
			"emissiveFactor":[
				0,
				0.6045055985450745,
				1
			],
			"name":"Material.002",
			"pbrMetallicRoughness":{
				"baseColorFactor":[
					0,
					0,
					0,
					1
				]
			}
		},
		{
			"doubleSided":true,
			"name":"Material.006",
			"pbrMetallicRoughness":{
				"baseColorFactor":[
					0.7990977168083191,
					0.7991036176681519,
					0.7991032600402832,
					1
				],
				"metallicFactor":0,
				"roughnessFactor":0.5
			}
		},
		{
			"doubleSided":true,
			"name":"Material.008",
			"pbrMetallicRoughness":{
				"baseColorFactor":[
					0,
					0,
					0,
					1
				],
				"metallicFactor":0,
				"roughnessFactor":0.5
			}
		},
		{
			"doubleSided":true,
			"name":"Material.001",
			"pbrMetallicRoughness":{
				"baseColorFactor":[
					0.800000011920929,
					0.800000011920929,
					0.800000011920929,
					1
				],
				"metallicFactor":0,
				"roughnessFactor":0.18636363744735718
			}
		},
		{
			"doubleSided":true,
			"name":"pngtree-texture-of-an-air-conditioner-s-radiator-grille-image_1",
			"pbrMetallicRoughness":{
				"baseColorTexture":{
					"index":0
				},
				"metallicFactor":0,
				"roughnessFactor":0.5
			}
		}
	],
	"meshes":[
		{
			"name":"Cube.001",
			"primitives":[
				{
					"attributes":{
						"POSITION":0,
						"NORMAL":1,
						"TEXCOORD_0":2
					},
					"indices":3,
					"material":0
				}
			]
		},
		{
			"name":"Cube.003",
			"primitives":[
				{
					"attributes":{
						"POSITION":4,
						"NORMAL":5,
						"TEXCOORD_0":6
					},
					"indices":7,
					"material":1
				},
				{
					"attributes":{
						"POSITION":8,
						"NORMAL":9,
						"TEXCOORD_0":10
					},
					"indices":11,
					"material":2
				}
			]
		},
		{
			"name":"Cube.016",
			"primitives":[
				{
					"attributes":{
						"POSITION":12,
						"NORMAL":13,
						"TEXCOORD_0":14
					},
					"indices":15
				}
			]
		},
		{
			"name":"Cube.017",
			"primitives":[
				{
					"attributes":{
						"POSITION":16,
						"NORMAL":17,
						"TEXCOORD_0":18
					},
					"indices":19,
					"material":3
				}
			]
		},
		{
			"name":"Cube.018",
			"primitives":[
				{
					"attributes":{
						"POSITION":20,
						"NORMAL":21,
						"TEXCOORD_0":22
					},
					"indices":19,
					"material":3
				}
			]
		},
		{
			"name":"Cube.019",
			"primitives":[
				{
					"attributes":{
						"POSITION":23,
						"NORMAL":24,
						"TEXCOORD_0":25
					},
					"indices":26
				}
			]
		},
		{
			"name":"Cube.020",
			"primitives":[
				{
					"attributes":{
						"POSITION":27,
						"NORMAL":28,
						"TEXCOORD_0":29
					},
					"indices":26
				}
			]
		},
		{
			"name":"pngtree-texture-of-an-air-conditioner-s-radiator-grille-ima",
			"primitives":[
				{
					"attributes":{
						"POSITION":30,
						"NORMAL":31,
						"TEXCOORD_0":32
					},
					"indices":33,
					"material":4
				}
			]
		},
		{
			"name":"pngtree-texture-of-an-air-conditioner-s-radiator-grille-ima.001",
			"primitives":[
				{
					"attributes":{
						"POSITION":34,
						"NORMAL":35,
						"TEXCOORD_0":36
					},
					"indices":33,
					"material":4
				}
			]
		},
		{
			"name":"pngtree-texture-of-an-air-conditioner-s-radiator-grille-ima.002",
			"primitives":[
				{
					"attributes":{
						"POSITION":37,
						"NORMAL":38,
						"TEXCOORD_0":39
					},
					"indices":33,
					"material":4
				}
			]
		},
		{
			"name":"pngtree-texture-of-an-air-conditioner-s-radiator-grille-ima.003",
			"primitives":[
				{
					"attributes":{
						"POSITION":40,
						"NORMAL":41,
						"TEXCOORD_0":42
					},
					"indices":33,
					"material":4
				}
			]
		},
		{
			"name":"pngtree-texture-of-an-air-conditioner-s-radiator-grille-ima.004",
			"primitives":[
				{
					"attributes":{
						"POSITION":43,
						"NORMAL":44,
						"TEXCOORD_0":45
					},
					"indices":33,
					"material":4
				}
			]
		},
		{
			"name":"pngtree-texture-of-an-air-conditioner-s-radiator-grille-image_1",
			"primitives":[
				{
					"attributes":{
						"POSITION":46,
						"NORMAL":47,
						"TEXCOORD_0":48
					},
					"indices":33,
					"material":4
				}
			]
		}
	],
	"textures":[
		{
			"sampler":0,
			"source":0
		}
	],
	"images":[
		{
			"mimeType":"image/jpeg",
			"name":"vent.jpg",
			"uri":"textures/vent_jpg.jpg"
		}
	],
	"accessors":[
		{
			"bufferView":0,
			"componentType":5126,
			"count":24,
			"max":[
				102.09158325195312,
				24.107437133789062,
				197.2049102783203
			],
			"min":[
				-102.09857177734375,
				0.060146331787109375,
				3.7494003772735596
			],
			"type":"VEC3"
		},
		{
			"bufferView":1,
			"componentType":5126,
			"count":24,
			"type":"VEC3"
		},
		{
			"bufferView":2,
			"componentType":5126,
			"count":24,
			"type":"VEC2"
		},
		{
			"bufferView":3,
			"componentType":5123,
			"count":36,
			"type":"SCALAR"
		},
		{
			"bufferView":4,
			"componentType":5126,
			"count":553,
			"max":[
				7.44996976852417,
				12.803325653076172,
				3.859955310821533
			],
			"min":[
				-7.450031757354736,
				-11.796674728393555,
				-3.5400443077087402
			],
			"type":"VEC3"
		},
		{
			"bufferView":5,
			"componentType":5126,
			"count":553,
			"type":"VEC3"
		},
		{
			"bufferView":6,
			"componentType":5126,
			"count":553,
			"type":"VEC2"
		},
		{
			"bufferView":7,
			"componentType":5123,
			"count":2502,
			"type":"SCALAR"
		},
		{
			"bufferView":8,
			"componentType":5126,
			"count":32,
			"max":[
				7.086889266967773,
				12.072206497192383,
				3.814180850982666
			],
			"min":[
				-7.086936950683594,
				8.810189247131348,
				0.7994823455810547
			],
			"type":"VEC3"
		},
		{
			"bufferView":9,
			"componentType":5126,
			"count":32,
			"type":"VEC3"
		},
		{
			"bufferView":10,
			"componentType":5126,
			"count":32,
			"type":"VEC2"
		},
		{
			"bufferView":11,
			"componentType":5123,
			"count":150,
			"type":"SCALAR"
		},
		{
			"bufferView":12,
			"componentType":5126,
			"count":56,
			"max":[
				0.34943270683288574,
				1.7969121932983398,
				0.3660709857940674
			],
			"min":[
				-0.34943270683288574,
				-1.7969131469726562,
				-0.3660709857940674
			],
			"type":"VEC3"
		},
		{
			"bufferView":13,
			"componentType":5126,
			"count":56,
			"type":"VEC3"
		},
		{
			"bufferView":14,
			"componentType":5126,
			"count":56,
			"type":"VEC2"
		},
		{
			"bufferView":15,
			"componentType":5123,
			"count":324,
			"type":"SCALAR"
		},
		{
			"bufferView":16,
			"componentType":5126,
			"count":768,
			"max":[
				3.3686511516571045,
				1.4224357604980469,
				0.1881713569164276
			],
			"min":[
				-3.3686513900756836,
				-1.4224354028701782,
				-0.18816998600959778
			],
			"type":"VEC3"
		},
		{
			"bufferView":17,
			"componentType":5126,
			"count":768,
			"type":"VEC3"
		},
		{
			"bufferView":18,
			"componentType":5126,
			"count":768,
			"type":"VEC2"
		},
		{
			"bufferView":19,
			"componentType":5123,
			"count":4536,
			"type":"SCALAR"
		},
		{
			"bufferView":20,
			"componentType":5126,
			"count":768,
			"max":[
				3.3686511516571045,
				1.4224357604980469,
				0.1881713569164276
			],
			"min":[
				-3.3686513900756836,
				-1.4224354028701782,
				-0.18816998600959778
			],
			"type":"VEC3"
		},
		{
			"bufferView":21,
			"componentType":5126,
			"count":768,
			"type":"VEC3"
		},
		{
			"bufferView":22,
			"componentType":5126,
			"count":768,
			"type":"VEC2"
		},
		{
			"bufferView":23,
			"componentType":5126,
			"count":128,
			"max":[
				1.808581829071045,
				0.10160226374864578,
				0.18817138671875
			],
			"min":[
				-1.808581829071045,
				-0.10160297900438309,
				-0.1881699562072754
			],
			"type":"VEC3"
		},
		{
			"bufferView":24,
			"componentType":5126,
			"count":128,
			"type":"VEC3"
		},
		{
			"bufferView":25,
			"componentType":5126,
			"count":128,
			"type":"VEC2"
		},
		{
			"bufferView":26,
			"componentType":5123,
			"count":756,
			"type":"SCALAR"
		},
		{
			"bufferView":27,
			"componentType":5126,
			"count":128,
			"max":[
				1.808581829071045,
				0.10160226374864578,
				0.18817138671875
			],
			"min":[
				-1.808581829071045,
				-0.10160297900438309,
				-0.1881699562072754
			],
			"type":"VEC3"
		},
		{
			"bufferView":28,
			"componentType":5126,
			"count":128,
			"type":"VEC3"
		},
		{
			"bufferView":29,
			"componentType":5126,
			"count":128,
			"type":"VEC2"
		},
		{
			"bufferView":30,
			"componentType":5126,
			"count":1024,
			"max":[
				1.0482914447784424,
				0,
				0.5
			],
			"min":[
				-1.0482605695724487,
				0,
				-0.5
			],
			"type":"VEC3"
		},
		{
			"bufferView":31,
			"componentType":5126,
			"count":1024,
			"type":"VEC3"
		},
		{
			"bufferView":32,
			"componentType":5126,
			"count":1024,
			"type":"VEC2"
		},
		{
			"bufferView":33,
			"componentType":5123,
			"count":5766,
			"type":"SCALAR"
		},
		{
			"bufferView":34,
			"componentType":5126,
			"count":1024,
			"max":[
				1.064422607421875,
				0,
				0.5
			],
			"min":[
				-1.0644221305847168,
				0,
				-0.5
			],
			"type":"VEC3"
		},
		{
			"bufferView":35,
			"componentType":5126,
			"count":1024,
			"type":"VEC3"
		},
		{
			"bufferView":36,
			"componentType":5126,
			"count":1024,
			"type":"VEC2"
		},
		{
			"bufferView":37,
			"componentType":5126,
			"count":1024,
			"max":[
				1.0482914447784424,
				0,
				0.5
			],
			"min":[
				-1.0482605695724487,
				0,
				-0.5
			],
			"type":"VEC3"
		},
		{
			"bufferView":38,
			"componentType":5126,
			"count":1024,
			"type":"VEC3"
		},
		{
			"bufferView":39,
			"componentType":5126,
			"count":1024,
			"type":"VEC2"
		},
		{
			"bufferView":40,
			"componentType":5126,
			"count":1024,
			"max":[
				1.064422607421875,
				0,
				0.5
			],
			"min":[
				-1.0644221305847168,
				0,
				-0.5
			],
			"type":"VEC3"
		},
		{
			"bufferView":41,
			"componentType":5126,
			"count":1024,
			"type":"VEC3"
		},
		{
			"bufferView":42,
			"componentType":5126,
			"count":1024,
			"type":"VEC2"
		},
		{
			"bufferView":43,
			"componentType":5126,
			"count":1024,
			"max":[
				1.0482914447784424,
				0,
				0.5
			],
			"min":[
				-1.0482605695724487,
				0,
				-0.5
			],
			"type":"VEC3"
		},
		{
			"bufferView":44,
			"componentType":5126,
			"count":1024,
			"type":"VEC3"
		},
		{
			"bufferView":45,
			"componentType":5126,
			"count":1024,
			"type":"VEC2"
		},
		{
			"bufferView":46,
			"componentType":5126,
			"count":1024,
			"max":[
				1.064422607421875,
				0,
				0.5
			],
			"min":[
				-1.0644221305847168,
				0,
				-0.5
			],
			"type":"VEC3"
		},
		{
			"bufferView":47,
			"componentType":5126,
			"count":1024,
			"type":"VEC3"
		},
		{
			"bufferView":48,
			"componentType":5126,
			"count":1024,
			"type":"VEC2"
		}
	],
	"bufferViews":[
		{
			"buffer":0,
			"byteLength":288,
			"byteOffset":0,
			"target":34962
		},
		{
			"buffer":0,
			"byteLength":288,
			"byteOffset":288,
			"target":34962
		},
		{
			"buffer":0,
			"byteLength":192,
			"byteOffset":576,
			"target":34962
		},
		{
			"buffer":0,
			"byteLength":72,
			"byteOffset":768,
			"target":34963
		},
		{
			"buffer":0,
			"byteLength":6636,
			"byteOffset":840,
			"target":34962
		},
		{
			"buffer":0,
			"byteLength":6636,
			"byteOffset":7476,
			"target":34962
		},
		{
			"buffer":0,
			"byteLength":4424,
			"byteOffset":14112,
			"target":34962
		},
		{
			"buffer":0,
			"byteLength":5004,
			"byteOffset":18536,
			"target":34963
		},
		{
			"buffer":0,
			"byteLength":384,
			"byteOffset":23540,
			"target":34962
		},
		{
			"buffer":0,
			"byteLength":384,
			"byteOffset":23924,
			"target":34962
		},
		{
			"buffer":0,
			"byteLength":256,
			"byteOffset":24308,
			"target":34962
		},
		{
			"buffer":0,
			"byteLength":300,
			"byteOffset":24564,
			"target":34963
		},
		{
			"buffer":0,
			"byteLength":672,
			"byteOffset":24864,
			"target":34962
		},
		{
			"buffer":0,
			"byteLength":672,
			"byteOffset":25536,
			"target":34962
		},
		{
			"buffer":0,
			"byteLength":448,
			"byteOffset":26208,
			"target":34962
		},
		{
			"buffer":0,
			"byteLength":648,
			"byteOffset":26656,
			"target":34963
		},
		{
			"buffer":0,
			"byteLength":9216,
			"byteOffset":27304,
			"target":34962
		},
		{
			"buffer":0,
			"byteLength":9216,
			"byteOffset":36520,
			"target":34962
		},
		{
			"buffer":0,
			"byteLength":6144,
			"byteOffset":45736,
			"target":34962
		},
		{
			"buffer":0,
			"byteLength":9072,
			"byteOffset":51880,
			"target":34963
		},
		{
			"buffer":0,
			"byteLength":9216,
			"byteOffset":60952,
			"target":34962
		},
		{
			"buffer":0,
			"byteLength":9216,
			"byteOffset":70168,
			"target":34962
		},
		{
			"buffer":0,
			"byteLength":6144,
			"byteOffset":79384,
			"target":34962
		},
		{
			"buffer":0,
			"byteLength":1536,
			"byteOffset":85528,
			"target":34962
		},
		{
			"buffer":0,
			"byteLength":1536,
			"byteOffset":87064,
			"target":34962
		},
		{
			"buffer":0,
			"byteLength":1024,
			"byteOffset":88600,
			"target":34962
		},
		{
			"buffer":0,
			"byteLength":1512,
			"byteOffset":89624,
			"target":34963
		},
		{
			"buffer":0,
			"byteLength":1536,
			"byteOffset":91136,
			"target":34962
		},
		{
			"buffer":0,
			"byteLength":1536,
			"byteOffset":92672,
			"target":34962
		},
		{
			"buffer":0,
			"byteLength":1024,
			"byteOffset":94208,
			"target":34962
		},
		{
			"buffer":0,
			"byteLength":12288,
			"byteOffset":95232,
			"target":34962
		},
		{
			"buffer":0,
			"byteLength":12288,
			"byteOffset":107520,
			"target":34962
		},
		{
			"buffer":0,
			"byteLength":8192,
			"byteOffset":119808,
			"target":34962
		},
		{
			"buffer":0,
			"byteLength":11532,
			"byteOffset":128000,
			"target":34963
		},
		{
			"buffer":0,
			"byteLength":12288,
			"byteOffset":139532,
			"target":34962
		},
		{
			"buffer":0,
			"byteLength":12288,
			"byteOffset":151820,
			"target":34962
		},
		{
			"buffer":0,
			"byteLength":8192,
			"byteOffset":164108,
			"target":34962
		},
		{
			"buffer":0,
			"byteLength":12288,
			"byteOffset":172300,
			"target":34962
		},
		{
			"buffer":0,
			"byteLength":12288,
			"byteOffset":184588,
			"target":34962
		},
		{
			"buffer":0,
			"byteLength":8192,
			"byteOffset":196876,
			"target":34962
		},
		{
			"buffer":0,
			"byteLength":12288,
			"byteOffset":205068,
			"target":34962
		},
		{
			"buffer":0,
			"byteLength":12288,
			"byteOffset":217356,
			"target":34962
		},
		{
			"buffer":0,
			"byteLength":8192,
			"byteOffset":229644,
			"target":34962
		},
		{
			"buffer":0,
			"byteLength":12288,
			"byteOffset":237836,
			"target":34962
		},
		{
			"buffer":0,
			"byteLength":12288,
			"byteOffset":250124,
			"target":34962
		},
		{
			"buffer":0,
			"byteLength":8192,
			"byteOffset":262412,
			"target":34962
		},
		{
			"buffer":0,
			"byteLength":12288,
			"byteOffset":270604,
			"target":34962
		},
		{
			"buffer":0,
			"byteLength":12288,
			"byteOffset":282892,
			"target":34962
		},
		{
			"buffer":0,
			"byteLength":8192,
			"byteOffset":295180,
			"target":34962
		}
	],
	"samplers":[
		{
			"magFilter":9729,
			"minFilter":9987
		}
	],
	"buffers":[
		{
			"byteLength":303372,
			"uri":"20ton_AC_CC.bin"
		}
	]
}
