{
  "asset": {
    "generator": "Khronos glTF Blender I/O v4.3.47",
    "version": "2.0"
  },
  "scene": 0,
  "scenes": [
    {
      "name": "Scene",
      "nodes": [0, 1, 2, 3, 4, 5]
    }
  ],
  "nodes": [
    {
      "mesh": 0,
      "name": "Cube"
    },
    {
      "mesh": 1,
      "name": "Cube.001",
      "translation": [0, 9.466026306152344, 0]
    },
    {
      "mesh": 2,
      "name": "Cube.004",
      "scale": [1.0013890266418457, 1.0013890266418457, 1.0013890266418457],
      "translation": [0, 9.466026306152344, -0.048374325037002563]
    },
    {
      "mesh": 3,
      "name": "Cube.007",
      "translation": [
        -0.004648586735129356, 18.19193458557129, 1.5557973384857178
      ]
    },
    {
      "mesh": 4,
      "name": "steel-grill",
      "rotation": [0.7071068286895752, 0, 0, 0.7071068286895752],
      "scale": [4.994135856628418, 8.018550872802734, 3.017972230911255],
      "translation": [0, 3.1401402950286865, 1.7616488933563232]
    },
    {
      "mesh": 5,
      "name": "Cube.006",
      "scale": [1.0166302919387817, 1.0340243577957153, 1],
      "translation": [0, 17.127973556518555, 1.6168922185897827]
    }
  ],
  "materials": [
    {
      "doubleSided": true,
      "emissiveFactor": [0, 0.4102085828781128, 1],
      "name": "Material",
      "pbrMetallicRoughness": {
        "baseColorFactor": [0, 0, 0, 1]
      }
    },
    {
      "doubleSided": true,
      "name": "Material.002",
      "pbrMetallicRoughness": {
        "metallicFactor": 0,
        "roughnessFactor": 0.1409091055393219
      }
    },
    {
      "doubleSided": true,
      "name": "Material.003",
      "pbrMetallicRoughness": {
        "baseColorFactor": [0, 0, 0, 1],
        "metallicFactor": 0,
        "roughnessFactor": 0.5
      }
    },
    {
      "doubleSided": true,
      "name": "Material.001",
      "pbrMetallicRoughness": {
        "baseColorFactor": [
          0.800000011920929, 0.800000011920929, 0.800000011920929, 1
        ],
        "metallicFactor": 0,
        "roughnessFactor": 0.18636363744735718
      }
    },
    {
      "doubleSided": true,
      "name": "steel-grill",
      "pbrMetallicRoughness": {
        "baseColorTexture": {
          "index": 0
        },
        "metallicFactor": 0,
        "roughnessFactor": 0.5
      }
    }
  ],
  "meshes": [
    {
      "name": "Cube",
      "primitives": [
        {
          "attributes": {
            "POSITION": 0,
            "NORMAL": 1,
            "TEXCOORD_0": 2
          },
          "indices": 3,
          "material": 0
        }
      ]
    },
    {
      "name": "Cube.001",
      "primitives": [
        {
          "attributes": {
            "POSITION": 4,
            "NORMAL": 5,
            "TEXCOORD_0": 6
          },
          "indices": 7,
          "material": 1
        },
        {
          "attributes": {
            "POSITION": 8,
            "NORMAL": 9,
            "TEXCOORD_0": 10
          },
          "indices": 11,
          "material": 2
        }
      ]
    },
    {
      "name": "Cube.004",
      "primitives": [
        {
          "attributes": {
            "POSITION": 12,
            "NORMAL": 13,
            "TEXCOORD_0": 14
          },
          "indices": 15
        }
      ]
    },
    {
      "name": "Cube.007",
      "primitives": [
        {
          "attributes": {
            "POSITION": 16,
            "NORMAL": 17,
            "TEXCOORD_0": 18
          },
          "indices": 19,
          "material": 3
        }
      ]
    },
    {
      "name": "steel-grill",
      "primitives": [
        {
          "attributes": {
            "POSITION": 20,
            "NORMAL": 21,
            "TEXCOORD_0": 22
          },
          "indices": 23,
          "material": 4
        }
      ]
    },
    {
      "name": "Cube.006",
      "primitives": [
        {
          "attributes": {
            "POSITION": 24,
            "NORMAL": 25,
            "TEXCOORD_0": 26
          },
          "indices": 27
        }
      ]
    }
  ],
  "textures": [
    {
      "sampler": 0,
      "source": 0
    }
  ],
  "images": [
    {
      "mimeType": "image/png",
      "name": "Air vent bake",
      "uri": "textures/bake_png.png"
    }
  ],
  "accessors": [
    {
      "bufferView": 0,
      "componentType": 5126,
      "count": 24,
      "max": [48.717098236083984, 18.733299255371094, 98.25196838378906],
      "min": [-48.71710205078125, 0.017513275146484375, 1.7495551109313965],
      "type": "VEC3"
    },
    {
      "bufferView": 1,
      "componentType": 5126,
      "count": 24,
      "type": "VEC3"
    },
    {
      "bufferView": 2,
      "componentType": 5126,
      "count": 24,
      "type": "VEC2"
    },
    {
      "bufferView": 3,
      "componentType": 5123,
      "count": 36,
      "type": "SCALAR"
    },
    {
      "bufferView": 4,
      "componentType": 5126,
      "count": 364,
      "max": [4.299490451812744, 9.450000762939453, 1.749999761581421],
      "min": [-4.299490451812744, -9.449999809265137, -1.749999761581421],
      "type": "VEC3"
    },
    {
      "bufferView": 5,
      "componentType": 5126,
      "count": 364,
      "type": "VEC3"
    },
    {
      "bufferView": 6,
      "componentType": 5126,
      "count": 364,
      "type": "VEC2"
    },
    {
      "bufferView": 7,
      "componentType": 5123,
      "count": 1062,
      "type": "SCALAR"
    },
    {
      "bufferView": 8,
      "componentType": 5126,
      "count": 52,
      "max": [3.773305654525757, 9.194391250610352, 1.7349920272827148],
      "min": [-3.773305654525757, 6.122620582580566, 0.8314111232757568],
      "type": "VEC3"
    },
    {
      "bufferView": 9,
      "componentType": 5126,
      "count": 52,
      "type": "VEC3"
    },
    {
      "bufferView": 10,
      "componentType": 5126,
      "count": 52,
      "type": "VEC2"
    },
    {
      "bufferView": 11,
      "componentType": 5123,
      "count": 102,
      "type": "SCALAR"
    },
    {
      "bufferView": 12,
      "componentType": 5126,
      "count": 400,
      "max": [3.786043643951416, 9.186004638671875, 1.7872204780578613],
      "min": [-3.786043643951416, 6.137044429779053, 1.6215840578079224],
      "type": "VEC3"
    },
    {
      "bufferView": 13,
      "componentType": 5126,
      "count": 400,
      "type": "VEC3"
    },
    {
      "bufferView": 14,
      "componentType": 5126,
      "count": 400,
      "type": "VEC2"
    },
    {
      "bufferView": 15,
      "componentType": 5123,
      "count": 1452,
      "type": "SCALAR"
    },
    {
      "bufferView": 16,
      "componentType": 5126,
      "count": 1228,
      "max": [3.5406546592712402, 0.10160255432128906, 0.18817138671875],
      "min": [-3.5406546592712402, -2.1336536407470703, -0.1881699562072754],
      "type": "VEC3"
    },
    {
      "bufferView": 17,
      "componentType": 5126,
      "count": 1228,
      "type": "VEC3"
    },
    {
      "bufferView": 18,
      "componentType": 5126,
      "count": 1228,
      "type": "VEC2"
    },
    {
      "bufferView": 19,
      "componentType": 5123,
      "count": 4536,
      "type": "SCALAR"
    },
    {
      "bufferView": 20,
      "componentType": 5126,
      "count": 5408,
      "max": [0.7735962867736816, 0, 0.5],
      "min": [-0.7735962867736816, 0, -1.4946635961532593],
      "type": "VEC3"
    },
    {
      "bufferView": 21,
      "componentType": 5126,
      "count": 5408,
      "type": "VEC3"
    },
    {
      "bufferView": 22,
      "componentType": 5126,
      "count": 5408,
      "type": "VEC2"
    },
    {
      "bufferView": 23,
      "componentType": 5123,
      "count": 31212,
      "type": "SCALAR"
    },
    {
      "bufferView": 24,
      "componentType": 5126,
      "count": 176,
      "max": [3.705350875854492, 1.4730854034423828, 0.09448981285095215],
      "min": [-3.705349922180176, -1.473078727722168, -0.09448981285095215],
      "type": "VEC3"
    },
    {
      "bufferView": 25,
      "componentType": 5126,
      "count": 176,
      "type": "VEC3"
    },
    {
      "bufferView": 26,
      "componentType": 5126,
      "count": 176,
      "type": "VEC2"
    },
    {
      "bufferView": 27,
      "componentType": 5123,
      "count": 960,
      "type": "SCALAR"
    }
  ],
  "bufferViews": [
    {
      "buffer": 0,
      "byteLength": 288,
      "byteOffset": 0,
      "target": 34962
    },
    {
      "buffer": 0,
      "byteLength": 288,
      "byteOffset": 288,
      "target": 34962
    },
    {
      "buffer": 0,
      "byteLength": 192,
      "byteOffset": 576,
      "target": 34962
    },
    {
      "buffer": 0,
      "byteLength": 72,
      "byteOffset": 768,
      "target": 34963
    },
    {
      "buffer": 0,
      "byteLength": 4368,
      "byteOffset": 840,
      "target": 34962
    },
    {
      "buffer": 0,
      "byteLength": 4368,
      "byteOffset": 5208,
      "target": 34962
    },
    {
      "buffer": 0,
      "byteLength": 2912,
      "byteOffset": 9576,
      "target": 34962
    },
    {
      "buffer": 0,
      "byteLength": 2124,
      "byteOffset": 12488,
      "target": 34963
    },
    {
      "buffer": 0,
      "byteLength": 624,
      "byteOffset": 14612,
      "target": 34962
    },
    {
      "buffer": 0,
      "byteLength": 624,
      "byteOffset": 15236,
      "target": 34962
    },
    {
      "buffer": 0,
      "byteLength": 416,
      "byteOffset": 15860,
      "target": 34962
    },
    {
      "buffer": 0,
      "byteLength": 204,
      "byteOffset": 16276,
      "target": 34963
    },
    {
      "buffer": 0,
      "byteLength": 4800,
      "byteOffset": 16480,
      "target": 34962
    },
    {
      "buffer": 0,
      "byteLength": 4800,
      "byteOffset": 21280,
      "target": 34962
    },
    {
      "buffer": 0,
      "byteLength": 3200,
      "byteOffset": 26080,
      "target": 34962
    },
    {
      "buffer": 0,
      "byteLength": 2904,
      "byteOffset": 29280,
      "target": 34963
    },
    {
      "buffer": 0,
      "byteLength": 14736,
      "byteOffset": 32184,
      "target": 34962
    },
    {
      "buffer": 0,
      "byteLength": 14736,
      "byteOffset": 46920,
      "target": 34962
    },
    {
      "buffer": 0,
      "byteLength": 9824,
      "byteOffset": 61656,
      "target": 34962
    },
    {
      "buffer": 0,
      "byteLength": 9072,
      "byteOffset": 71480,
      "target": 34963
    },
    {
      "buffer": 0,
      "byteLength": 64896,
      "byteOffset": 80552,
      "target": 34962
    },
    {
      "buffer": 0,
      "byteLength": 64896,
      "byteOffset": 145448,
      "target": 34962
    },
    {
      "buffer": 0,
      "byteLength": 43264,
      "byteOffset": 210344,
      "target": 34962
    },
    {
      "buffer": 0,
      "byteLength": 62424,
      "byteOffset": 253608,
      "target": 34963
    },
    {
      "buffer": 0,
      "byteLength": 2112,
      "byteOffset": 316032,
      "target": 34962
    },
    {
      "buffer": 0,
      "byteLength": 2112,
      "byteOffset": 318144,
      "target": 34962
    },
    {
      "buffer": 0,
      "byteLength": 1408,
      "byteOffset": 320256,
      "target": 34962
    },
    {
      "buffer": 0,
      "byteLength": 1920,
      "byteOffset": 321664,
      "target": 34963
    }
  ],
  "samplers": [
    {
      "magFilter": 9729,
      "minFilter": 9987
    }
  ],
  "buffers": [
    {
      "byteLength": 323584,
      "uri": "5ton_AC_CC.bin"
    }
  ]
}
