{
  "accessors": [
    {
      "bufferView": 2,
      "componentType": 5126,
      "count": 2460,
      "max": [
        1.8073811531066895,
        0.49792611598968506,
        1.0035561323165894
      ],
      "min": [
        -1.2328670024871826,
        -0.6163607835769653,
        -0.8270962238311768
      ],
      "type": "VEC3"
    },
    {
      "bufferView": 2,
      "byteOffset": 29520,
      "componentType": 5126,
      "count": 2460,
      "max": [
        1.0,
        1.0,
        1.0
      ],
      "min": [
        -1.0,
        -1.0,
        -1.0
      ],
      "type": "VEC3"
    },
    {
      "bufferView": 3,
      "componentType": 5126,
      "count": 2460,
      "max": [
        1.0,
        1.0,
        1.0,
        1.0
      ],
      "min": [
        -1.0,
        -1.0,
        -1.0,
        1.0
      ],
      "type": "VEC4"
    },
    {
      "bufferView": 1,
      "componentType": 5126,
      "count": 2460,
      "max": [
        0.9989832639694214,
        1.0
      ],
      "min": [
        0.0,
        0.0
      ],
      "type": "VEC2"
    },
    {
      "bufferView": 0,
      "componentType": 5125,
      "count": 5316,
      "type": "SCALAR"
    },
    {
      "bufferView": 2,
      "byteOffset": 59040,
      "componentType": 5126,
      "count": 14018,
      "max": [
        1.2946168184280396,
        0.4329218864440918,
        0.6757599115371704
      ],
      "min": [
        0.04059261083602905,
        0.11081588268280029,
        -0.5281628966331482
      ],
      "type": "VEC3"
    },
    {
      "bufferView": 2,
      "byteOffset": 227256,
      "componentType": 5126,
      "count": 14018,
      "max": [
        1.0,
        1.0,
        1.0
      ],
      "min": [
        -1.0,
        -1.0,
        -1.0
      ],
      "type": "VEC3"
    },
    {
      "bufferView": 3,
      "byteOffset": 39360,
      "componentType": 5126,
      "count": 14018,
      "max": [
        0.999992847442627,
        0.44547027349472046,
        0.9999895095825195,
        1.0
      ],
      "min": [
        -0.999992847442627,
        -0.5556911826133728,
        -0.9999895095825195,
        -1.0
      ],
      "type": "VEC4"
    },
    {
      "bufferView": 1,
      "byteOffset": 19680,
      "componentType": 5126,
      "count": 14018,
      "max": [
        1.0,
        0.8851220607757568
      ],
      "min": [
        0.0,
        0.0
      ],
      "type": "VEC2"
    },
    {
      "bufferView": 0,
      "byteOffset": 21264,
      "componentType": 5125,
      "count": 69120,
      "type": "SCALAR"
    },
    {
      "bufferView": 2,
      "byteOffset": 395472,
      "componentType": 5126,
      "count": 65534,
      "max": [
        1.7295527458190918,
        0.42131519317626953,
        0.8796460628509521
      ],
      "min": [
        -0.4095369577407837,
        -0.5574484467506409,
        -0.7169868350028992
      ],
      "type": "VEC3"
    },
    {
      "bufferView": 2,
      "byteOffset": 1181880,
      "componentType": 5126,
      "count": 65534,
      "max": [
        0.9998005628585815,
        0.7145421504974365,
        0.9998000860214233
      ],
      "min": [
        -0.999800980091095,
        -0.9959638714790344,
        -0.9998003840446472
      ],
      "type": "VEC3"
    },
    {
      "bufferView": 3,
      "byteOffset": 263648,
      "componentType": 5126,
      "count": 65534,
      "max": [
        0.9959518909454346,
        0.9998487234115601,
        0.9999988079071045,
        1.0
      ],
      "min": [
        -0.9969362020492554,
        -0.9999980330467224,
        -0.999398946762085,
        1.0
      ],
      "type": "VEC4"
    },
    {
      "bufferView": 1,
      "byteOffset": 131824,
      "componentType": 5126,
      "count": 65534,
      "max": [
        0.9990823864936829,
        1.0
      ],
      "min": [
        0.0,
        0.0
      ],
      "type": "VEC2"
    },
    {
      "bufferView": 0,
      "byteOffset": 297744,
      "componentType": 5125,
      "count": 74343,
      "type": "SCALAR"
    },
    {
      "bufferView": 2,
      "byteOffset": 1968288,
      "componentType": 5126,
      "count": 11241,
      "max": [
        1.7173374891281128,
        0.42131507396698,
        0.8286986351013184
      ],
      "min": [
        -0.40944135189056396,
        -0.5573188066482544,
        -0.6096252799034119
      ],
      "type": "VEC3"
    },
    {
      "bufferView": 2,
      "byteOffset": 2103180,
      "componentType": 5126,
      "count": 11241,
      "max": [
        0.9998005032539368,
        0.817332923412323,
        0.9998000860214233
      ],
      "min": [
        -0.9998006820678711,
        -0.9959062933921814,
        -0.9998003244400024
      ],
      "type": "VEC3"
    },
    {
      "bufferView": 3,
      "byteOffset": 1312192,
      "componentType": 5126,
      "count": 11241,
      "max": [
        0.993870198726654,
        0.9998499155044556,
        0.9959571957588196,
        1.0
      ],
      "min": [
        -0.9827650189399719,
        -0.9999098777770996,
        -0.9999844431877136,
        1.0
      ],
      "type": "VEC4"
    },
    {
      "bufferView": 1,
      "byteOffset": 656096,
      "componentType": 5126,
      "count": 11241,
      "max": [
        0.9719300270080566,
        0.9720621705055237
      ],
      "min": [
        0.0,
        0.0
      ],
      "type": "VEC2"
    },
    {
      "bufferView": 0,
      "byteOffset": 595116,
      "componentType": 5125,
      "count": 11241,
      "type": "SCALAR"
    },
    {
      "bufferView": 2,
      "byteOffset": 2238072,
      "componentType": 5126,
      "count": 470,
      "max": [
        -1.168570637702942,
        0.3137509822845459,
        0.8133900165557861
      ],
      "min": [
        -1.2108334302902222,
        -0.02823197841644287,
        0.266493558883667
      ],
      "type": "VEC3"
    },
    {
      "bufferView": 2,
      "byteOffset": 2243712,
      "componentType": 5126,
      "count": 470,
      "max": [
        1.0,
        1.0,
        1.0
      ],
      "min": [
        -1.0,
        -1.0,
        -1.0
      ],
      "type": "VEC3"
    },
    {
      "bufferView": 3,
      "byteOffset": 1492048,
      "componentType": 5126,
      "count": 470,
      "max": [
        1.0,
        1.0,
        0.46281787753105164,
        1.0
      ],
      "min": [
        -1.0,
        -1.0,
        -0.016043609008193016,
        1.0
      ],
      "type": "VEC4"
    },
    {
      "bufferView": 1,
      "byteOffset": 746024,
      "componentType": 5126,
      "count": 470,
      "max": [
        0.8413175344467163,
        1.0
      ],
      "min": [
        0.0,
        0.0
      ],
      "type": "VEC2"
    },
    {
      "bufferView": 0,
      "byteOffset": 640080,
      "componentType": 5125,
      "count": 564,
      "type": "SCALAR"
    },
    {
      "bufferView": 2,
      "byteOffset": 2249352,
      "componentType": 5126,
      "count": 1176,
      "max": [
        -0.6665252447128296,
        0.12383878231048584,
        0.366349458694458
      ],
      "min": [
        -1.3435420989990234,
        -0.8308241367340088,
        -0.9422669410705566
      ],
      "type": "VEC3"
    },
    {
      "bufferView": 2,
      "byteOffset": 2263464,
      "componentType": 5126,
      "count": 1176,
      "max": [
        0.9988597631454468,
        0.9990338087081909,
        0.9792779684066772
      ],
      "min": [
        -0.9990103244781494,
        -0.9980964660644531,
        -0.9816914796829224
      ],
      "type": "VEC3"
    },
    {
      "bufferView": 3,
      "byteOffset": 1499568,
      "componentType": 5126,
      "count": 1176,
      "max": [
        0.9991406798362732,
        0.9985055923461914,
        0.999102771282196,
        1.0
      ],
      "min": [
        -0.9981570839881897,
        -0.9983810782432556,
        -0.9965278506278992,
        -1.0
      ],
      "type": "VEC4"
    },
    {
      "bufferView": 1,
      "byteOffset": 749784,
      "componentType": 5126,
      "count": 1176,
      "max": [
        0.028472356498241425,
        1.0
      ],
      "min": [
        0.0,
        0.0
      ],
      "type": "VEC2"
    },
    {
      "bufferView": 0,
      "byteOffset": 642336,
      "componentType": 5125,
      "count": 6912,
      "type": "SCALAR"
    },
    {
      "bufferView": 2,
      "byteOffset": 2277576,
      "componentType": 5126,
      "count": 421,
      "max": [
        1.2027159929275513,
        0.7983151078224182,
        0.40545058250427246
      ],
      "min": [
        -0.6341756582260132,
        -0.7314333915710449,
        -0.9808908700942993
      ],
      "type": "VEC3"
    },
    {
      "bufferView": 2,
      "byteOffset": 2282628,
      "componentType": 5126,
      "count": 421,
      "max": [
        1.0,
        1.0,
        1.0
      ],
      "min": [
        -1.0,
        -0.9990187287330627,
        -1.0
      ],
      "type": "VEC3"
    },
    {
      "bufferView": 3,
      "byteOffset": 1518384,
      "componentType": 5126,
      "count": 421,
      "max": [
        1.0,
        1.0,
        0.09937001764774323,
        1.0
      ],
      "min": [
        -1.0,
        -1.0,
        -0.09930480271577835,
        1.0
      ],
      "type": "VEC4"
    },
    {
      "bufferView": 1,
      "byteOffset": 759192,
      "componentType": 5126,
      "count": 421,
      "max": [
        0.791537880897522,
        1.0
      ],
      "min": [
        0.0,
        0.0
      ],
      "type": "VEC2"
    },
    {
      "bufferView": 0,
      "byteOffset": 669984,
      "componentType": 5125,
      "count": 468,
      "type": "SCALAR"
    }
  ],
  "asset": {
    "extras": {
      "author": "mahmoudabdelsalam341 (https://sketchfab.com/mahmoudabdelsalam341)",
      "license": "CC-BY-4.0 (http://creativecommons.org/licenses/by/4.0/)",
      "source": "https://sketchfab.com/3d-models/air-conditioner-803de2ccea3647159e77ea71efc44dd9",
      "title": "Air Conditioner"
    },
    "generator": "Sketchfab-15.34.0",
    "version": "2.0"
  },
  "bufferViews": [
    {
      "buffer": 0,
      "byteLength": 671856,
      "name": "floatBufferViews",
      "target": 34963
    },
    {
      "buffer": 0,
      "byteLength": 762560,
      "byteOffset": 671856,
      "byteStride": 8,
      "name": "floatBufferViews",
      "target": 34962
    },
    {
      "buffer": 0,
      "byteLength": 2287680,
      "byteOffset": 1434416,
      "byteStride": 12,
      "name": "floatBufferViews",
      "target": 34962
    },
    {
      "buffer": 0,
      "byteLength": 1525120,
      "byteOffset": 3722096,
      "byteStride": 16,
      "name": "floatBufferViews",
      "target": 34962
    }
  ],
  "buffers": [
    {
      "byteLength": 5247216,
      "uri": "Air.bin"
    }
  ],
  "images": [
    {
      "uri": "textures/body_baseColor.png"
    },
    {
      "uri": "textures/body_metallicRoughness.png"
    },
    {
      "uri": "textures/body_normal.png"
    },
    {
      "uri": "textures/material_baseColor.png"
    },
    {
      "uri": "textures/material_metallicRoughness.png"
    },
    {
      "uri": "textures/material_normal.png"
    },
    {
      "uri": "textures/gird_wire_baseColor.png"
    },
    {
      "uri": "textures/gird_wire_metallicRoughness.png"
    },
    {
      "uri": "textures/gird_wire_normal.png"
    },
    {
      "uri": "textures/block_baseColor.png"
    },
    {
      "uri": "textures/block_metallicRoughness.png"
    },
    {
      "uri": "textures/block_normal.png"
    },
    {
      "uri": "textures/wire_baseColor.png"
    },
    {
      "uri": "textures/wire_metallicRoughness.png"
    },
    {
      "uri": "textures/wire_normal.png"
    },
    {
      "uri": "textures/stand_baseColor.png"
    },
    {
      "uri": "textures/stand_metallicRoughness.png"
    },
    {
      "uri": "textures/stand_normal.png"
    }
  ],
  "materials": [
    {
      "doubleSided": true,
      "name": "body",
      "normalTexture": {
        "index": 2
      },
      "pbrMetallicRoughness": {
        "baseColorTexture": {
          "index": 0
        },
        "metallicRoughnessTexture": {
          "index": 1
        }
      }
    },
    {
      "doubleSided": true,
      "name": "material",
      "normalTexture": {
        "index": 5
      },
      "pbrMetallicRoughness": {
        "baseColorTexture": {
          "index": 3
        },
        "metallicRoughnessTexture": {
          "index": 4
        }
      }
    },
    {
      "doubleSided": true,
      "name": "gird_wire",
      "normalTexture": {
        "index": 8
      },
      "pbrMetallicRoughness": {
        "baseColorTexture": {
          "index": 6
        },
        "metallicRoughnessTexture": {
          "index": 7
        }
      }
    },
    {
      "doubleSided": true,
      "name": "block",
      "normalTexture": {
        "index": 11
      },
      "pbrMetallicRoughness": {
        "baseColorTexture": {
          "index": 9
        },
        "metallicRoughnessTexture": {
          "index": 10
        }
      }
    },
    {
      "doubleSided": true,
      "name": "wire",
      "normalTexture": {
        "index": 14
      },
      "pbrMetallicRoughness": {
        "baseColorTexture": {
          "index": 12
        },
        "metallicRoughnessTexture": {
          "index": 13
        }
      }
    },
    {
      "doubleSided": true,
      "name": "stand",
      "normalTexture": {
        "index": 17
      },
      "pbrMetallicRoughness": {
        "baseColorTexture": {
          "index": 15
        },
        "metallicRoughnessTexture": {
          "index": 16
        }
      }
    }
  ],
  "meshes": [
    {
      "name": "Plane_body_0",
      "primitives": [
        {
          "attributes": {
            "NORMAL": 1,
            "POSITION": 0,
            "TANGENT": 2,
            "TEXCOORD_0": 3
          },
          "indices": 4,
          "material": 0,
          "mode": 4
        }
      ]
    },
    {
      "name": "Cylinder_fan_0",
      "primitives": [
        {
          "attributes": {
            "NORMAL": 6,
            "POSITION": 5,
            "TANGENT": 7,
            "TEXCOORD_0": 8
          },
          "indices": 9,
          "material": 1,
          "mode": 4
        }
      ]
    },
    {
      "name": "Plane.002_gird wire _0",
      "primitives": [
        {
          "attributes": {
            "NORMAL": 11,
            "POSITION": 10,
            "TANGENT": 12,
            "TEXCOORD_0": 13
          },
          "indices": 14,
          "material": 2,
          "mode": 4
        }
      ]
    },
    {
      "name": "Plane.002_gird wire _0",
      "primitives": [
        {
          "attributes": {
            "NORMAL": 16,
            "POSITION": 15,
            "TANGENT": 17,
            "TEXCOORD_0": 18
          },
          "indices": 19,
          "material": 2,
          "mode": 4
        }
      ]
    },
    {
      "name": "Plane.001_block_0",
      "primitives": [
        {
          "attributes": {
            "NORMAL": 21,
            "POSITION": 20,
            "TANGENT": 22,
            "TEXCOORD_0": 23
          },
          "indices": 24,
          "material": 3,
          "mode": 4
        }
      ]
    },
    {
      "name": "NurbsPath_wire_0",
      "primitives": [
        {
          "attributes": {
            "NORMAL": 26,
            "POSITION": 25,
            "TANGENT": 27,
            "TEXCOORD_0": 28
          },
          "indices": 29,
          "material": 4,
          "mode": 4
        }
      ]
    },
    {
      "name": "Plane.005_stand _0",
      "primitives": [
        {
          "attributes": {
            "NORMAL": 31,
            "POSITION": 30,
            "TANGENT": 32,
            "TEXCOORD_0": 33
          },
          "indices": 34,
          "material": 5,
          "mode": 4
        }
      ]
    }
  ],
  "nodes": [
    {
      "children": [
        1
      ],
      "matrix": [
        1.0,
        0.0,
        0.0,
        0.0,
        0.0,
        2.220446049250313e-16,
        -1.0,
        0.0,
        0.0,
        1.0,
        2.220446049250313e-16,
        0.0,
        0.0,
        0.0,
        0.0,
        1.0
      ],
      "name": "Sketchfab_model"
    },
    {
      "children": [
        2
      ],
      "matrix": [
        0.009999999776482582,
        0.0,
        0.0,
        0.0,
        0.0,
        0.0,
        0.009999999776482582,
        0.0,
        0.0,
        -0.009999999776482582,
        0.0,
        0.0,
        0.0,
        0.0,
        0.0,
        1.0
      ],
      "name": "f33fc9ced4ef4ad59827b341ffef413c.fbx"
    },
    {
      "children": [
        3,
        5,
        7,
        10,
        12,
        14
      ],
      "name": "RootNode"
    },
    {
      "children": [
        4
      ],
      "matrix": [
        100.0,
        0.0,
        0.0,
        0.0,
        0.0,
        -1.629206793918314e-05,
        -99.99999999999868,
        0.0,
        0.0,
        99.99999999999868,
        -1.629206793918314e-05,
        0.0,
        0.0,
        0.0,
        0.0,
        1.0
      ],
      "name": "Plane"
    },
    {
      "mesh": 0,
      "name": "Plane_body_0"
    },
    {
      "children": [
        6
      ],
      "matrix": [
        100.0,
        0.0,
        0.0,
        0.0,
        0.0,
        -1.629206793918314e-05,
        -99.99999999999868,
        0.0,
        0.0,
        99.99999999999868,
        -1.629206793918314e-05,
        0.0,
        0.0,
        0.0,
        0.0,
        1.0
      ],
      "name": "Cylinder"
    },
    {
      "mesh": 1,
      "name": "Cylinder_fan_0"
    },
    {
      "children": [
        8,
        9
      ],
      "matrix": [
        100.0,
        0.0,
        0.0,
        0.0,
        0.0,
        -1.629206793918314e-05,
        -99.99999999999868,
        0.0,
        0.0,
        99.99999999999868,
        -1.629206793918314e-05,
        0.0,
        0.0,
        0.0,
        0.0,
        1.0
      ],
      "name": "Plane.002"
    },
    {
      "mesh": 2,
      "name": "Plane.002_gird wire _0"
    },
    {
      "mesh": 3,
      "name": "Plane.002_gird wire _0"
    },
    {
      "children": [
        11
      ],
      "matrix": [
        100.0,
        0.0,
        0.0,
        0.0,
        0.0,
        -1.629206793918314e-05,
        -99.99999999999868,
        0.0,
        0.0,
        99.99999999999868,
        -1.629206793918314e-05,
        0.0,
        0.0,
        0.0,
        0.0,
        1.0
      ],
      "name": "Plane.001"
    },
    {
      "mesh": 4,
      "name": "Plane.001_block_0"
    },
    {
      "children": [
        13
      ],
      "matrix": [
        100.0,
        0.0,
        0.0,
        0.0,
        0.0,
        -1.629206793918314e-05,
        -99.99999999999868,
        0.0,
        0.0,
        99.99999999999868,
        -1.629206793918314e-05,
        0.0,
        0.0,
        0.0,
        0.0,
        1.0
      ],
      "name": "NurbsPath"
    },
    {
      "mesh": 5,
      "name": "NurbsPath_wire_0"
    },
    {
      "children": [
        15
      ],
      "matrix": [
        100.0,
        0.0,
        0.0,
        0.0,
        0.0,
        -1.629206793918314e-05,
        -99.99999999999868,
        0.0,
        0.0,
        99.99999999999868,
        -1.629206793918314e-05,
        0.0,
        0.0,
        0.0,
        0.0,
        1.0
      ],
      "name": "Plane.005"
    },
    {
      "mesh": 6,
      "name": "Plane.005_stand _0"
    }
  ],
  "samplers": [
    {
      "magFilter": 9729,
      "minFilter": 9987,
      "wrapS": 10497,
      "wrapT": 10497
    }
  ],
  "scene": 0,
  "scenes": [
    {
      "name": "Sketchfab_Scene",
      "nodes": [
        0
      ]
    }
  ],
  "textures": [
    {
      "sampler": 0,
      "source": 0
    },
    {
      "sampler": 0,
      "source": 1
    },
    {
      "sampler": 0,
      "source": 2
    },
    {
      "sampler": 0,
      "source": 3
    },
    {
      "sampler": 0,
      "source": 4
    },
    {
      "sampler": 0,
      "source": 5
    },
    {
      "sampler": 0,
      "source": 6
    },
    {
      "sampler": 0,
      "source": 7
    },
    {
      "sampler": 0,
      "source": 8
    },
    {
      "sampler": 0,
      "source": 9
    },
    {
      "sampler": 0,
      "source": 10
    },
    {
      "sampler": 0,
      "source": 11
    },
    {
      "sampler": 0,
      "source": 12
    },
    {
      "sampler": 0,
      "source": 13
    },
    {
      "sampler": 0,
      "source": 14
    },
    {
      "sampler": 0,
      "source": 15
    },
    {
      "sampler": 0,
      "source": 16
    },
    {
      "sampler": 0,
      "source": 17
    }
  ]
}
