{
	"asset":{
		"generator":"Khronos glTF Blender I/O v4.3.47",
		"version":"2.0"
	},
	"scene":0,
	"scenes":[
		{
			"name":"Scene",
			"nodes":[
				0,
				1,
				2,
				3,
				4,
				5,
				6
			]
		}
	],
	"nodes":[
		{
			"name":"Empty",
			"rotation":[
				0.7071068286895752,
				0,
				0,
				0.7071068286895752
			],
			"translation":[
				1.3152395486831665,
				0.8653625845909119,
				0
			]
		},
		{
			"name":"Empty.001",
			"rotation":[
				0.5,
				0.5,
				-0.5,
				0.5
			],
			"translation":[
				1.3152395486831665,
				0.8653625845909119,
				0.17446237802505493
			]
		},
		{
			"mesh":0,
			"name":"Cube",
			"scale":[
				0.09879693388938904,
				0.09879693388938904,
				0.09879693388938904
			],
			"translation":[
				0,
				1.1117867231369019,
				0
			]
		},
		{
			"mesh":1,
			"name":"Cylinder",
			"rotation":[
				-0.7071068286895752,
				0,
				0,
				0.7071067690849304
			],
			"scale":[
				0.023053061217069626,
				0.023053061217069626,
				0.023053061217069626
			],
			"translation":[
				0,
				0.8977765440940857,
				-0.1037636399269104
			]
		},
		{
			"mesh":2,
			"name":"Cube.001",
			"rotation":[
				0,
				0,
				-0.5501748919487,
				0.835049569606781
			],
			"scale":[
				0.02219236083328724,
				0.02219236083328724,
				0.02219235897064209
			],
			"translation":[
				0.5965709686279297,
				0.5766711831092834,
				0.04256110638380051
			]
		},
		{
			"mesh":3,
			"name":"Plane"
		},
		{
			"mesh":4,
			"name":"Suzanne",
			"scale":[
				0.24649614095687866,
				0.24649614095687866,
				0.24649614095687866
			],
			"translation":[
				0.004016519524157047,
				1.5655436515808105,
				-0.05795387551188469
			]
		}
	],
	"meshes":[
		{
			"name":"Cube.001",
			"primitives":[
				{
					"attributes":{
						"POSITION":0,
						"NORMAL":1,
						"TEXCOORD_0":2
					},
					"indices":3
				}
			]
		},
		{
			"name":"Cylinder",
			"primitives":[
				{
					"attributes":{
						"POSITION":4,
						"NORMAL":5,
						"TEXCOORD_0":6
					},
					"indices":7
				}
			]
		},
		{
			"name":"Cube",
			"primitives":[
				{
					"attributes":{
						"POSITION":8,
						"NORMAL":9,
						"TEXCOORD_0":10
					},
					"indices":11
				}
			]
		},
		{
			"name":"Plane",
			"primitives":[
				{
					"attributes":{
						"POSITION":12,
						"NORMAL":13,
						"TEXCOORD_0":14
					},
					"indices":15
				}
			]
		},
		{
			"name":"Suzanne",
			"primitives":[
				{
					"attributes":{
						"POSITION":16,
						"NORMAL":17,
						"TEXCOORD_0":18
					},
					"indices":19
				}
			]
		}
	],
	"accessors":[
		{
			"bufferView":0,
			"componentType":5126,
			"count":255,
			"max":[
				5.3856000900268555,
				4.204991340637207,
				1.263513445854187
			],
			"min":[
				0,
				-10.591400146484375,
				-1.1944231986999512
			],
			"type":"VEC3"
		},
		{
			"bufferView":1,
			"componentType":5126,
			"count":255,
			"type":"VEC3"
		},
		{
			"bufferView":2,
			"componentType":5126,
			"count":255,
			"type":"VEC2"
		},
		{
			"bufferView":3,
			"componentType":5123,
			"count":1374,
			"type":"SCALAR"
		},
		{
			"bufferView":4,
			"componentType":5126,
			"count":151,
			"max":[
				1,
				6.4370808601379395,
				1.1412612199783325
			],
			"min":[
				-24.13174057006836,
				-1,
				-21.595712661743164
			],
			"type":"VEC3"
		},
		{
			"bufferView":5,
			"componentType":5126,
			"count":151,
			"type":"VEC3"
		},
		{
			"bufferView":6,
			"componentType":5126,
			"count":151,
			"type":"VEC2"
		},
		{
			"bufferView":7,
			"componentType":5123,
			"count":708,
			"type":"SCALAR"
		},
		{
			"bufferView":8,
			"componentType":5126,
			"count":247,
			"max":[
				1.0452110767364502,
				1.559079647064209,
				5.961052894592285
			],
			"min":[
				-11.372369766235352,
				-4.817545413970947,
				-3.8608341217041016
			],
			"type":"VEC3"
		},
		{
			"bufferView":9,
			"componentType":5126,
			"count":247,
			"type":"VEC3"
		},
		{
			"bufferView":10,
			"componentType":5126,
			"count":247,
			"type":"VEC2"
		},
		{
			"bufferView":11,
			"componentType":5123,
			"count":948,
			"type":"SCALAR"
		},
		{
			"bufferView":12,
			"componentType":5126,
			"count":60,
			"max":[
				0.2613822817802429,
				0.1272505521774292,
				0.32493457198143005
			],
			"min":[
				0.049227166920900345,
				0.03558620065450668,
				-0.06937214732170105
			],
			"type":"VEC3"
		},
		{
			"bufferView":13,
			"componentType":5126,
			"count":60,
			"type":"VEC3"
		},
		{
			"bufferView":14,
			"componentType":5126,
			"count":60,
			"type":"VEC2"
		},
		{
			"bufferView":15,
			"componentType":5123,
			"count":348,
			"type":"SCALAR"
		},
		{
			"bufferView":16,
			"componentType":5126,
			"count":556,
			"max":[
				0.859375,
				0.7578125,
				0.8515625
			],
			"min":[
				-0.859375,
				-0.984375,
				-0.6300711631774902
			],
			"type":"VEC3"
		},
		{
			"bufferView":17,
			"componentType":5126,
			"count":556,
			"type":"VEC3"
		},
		{
			"bufferView":18,
			"componentType":5126,
			"count":556,
			"type":"VEC2"
		},
		{
			"bufferView":19,
			"componentType":5123,
			"count":2904,
			"type":"SCALAR"
		}
	],
	"bufferViews":[
		{
			"buffer":0,
			"byteLength":3060,
			"byteOffset":0,
			"target":34962
		},
		{
			"buffer":0,
			"byteLength":3060,
			"byteOffset":3060,
			"target":34962
		},
		{
			"buffer":0,
			"byteLength":2040,
			"byteOffset":6120,
			"target":34962
		},
		{
			"buffer":0,
			"byteLength":2748,
			"byteOffset":8160,
			"target":34963
		},
		{
			"buffer":0,
			"byteLength":1812,
			"byteOffset":10908,
			"target":34962
		},
		{
			"buffer":0,
			"byteLength":1812,
			"byteOffset":12720,
			"target":34962
		},
		{
			"buffer":0,
			"byteLength":1208,
			"byteOffset":14532,
			"target":34962
		},
		{
			"buffer":0,
			"byteLength":1416,
			"byteOffset":15740,
			"target":34963
		},
		{
			"buffer":0,
			"byteLength":2964,
			"byteOffset":17156,
			"target":34962
		},
		{
			"buffer":0,
			"byteLength":2964,
			"byteOffset":20120,
			"target":34962
		},
		{
			"buffer":0,
			"byteLength":1976,
			"byteOffset":23084,
			"target":34962
		},
		{
			"buffer":0,
			"byteLength":1896,
			"byteOffset":25060,
			"target":34963
		},
		{
			"buffer":0,
			"byteLength":720,
			"byteOffset":26956,
			"target":34962
		},
		{
			"buffer":0,
			"byteLength":720,
			"byteOffset":27676,
			"target":34962
		},
		{
			"buffer":0,
			"byteLength":480,
			"byteOffset":28396,
			"target":34962
		},
		{
			"buffer":0,
			"byteLength":696,
			"byteOffset":28876,
			"target":34963
		},
		{
			"buffer":0,
			"byteLength":6672,
			"byteOffset":29572,
			"target":34962
		},
		{
			"buffer":0,
			"byteLength":6672,
			"byteOffset":36244,
			"target":34962
		},
		{
			"buffer":0,
			"byteLength":4448,
			"byteOffset":42916,
			"target":34962
		},
		{
			"buffer":0,
			"byteLength":5808,
			"byteOffset":47364,
			"target":34963
		}
	],
	"buffers":[
		{
			"byteLength":53172,
			"uri":"Monkey.bin"
		}
	]
}
