{
	"asset":{
		"generator":"Khronos glTF Blender I/O v4.3.47",
		"version":"2.0"
	},
	"scene":0,
	"scenes":[
		{
			"name":"Scene",
			"nodes":[
				0,
				1,
				2
			]
		}
	],
	"nodes":[
		{
			"name":"Empty",
			"rotation":[
				0.7071068286895752,
				0,
				0,
				0.7071068286895752
			],
			"translation":[
				-0.9382277131080627,
				0.9234973192214966,
				0
			]
		},
		{
			"name":"Empty.001",
			"rotation":[
				0.5,
				0.5,
				-0.5,
				0.5
			],
			"translation":[
				0.009981155395507812,
				0.9677729606628418,
				-1.370629072189331
			]
		},
		{
			"mesh":0,
			"name":"Cylinder"
		}
	],
	"meshes":[
		{
			"name":"Cylinder.001",
			"primitives":[
				{
					"attributes":{
						"POSITION":0,
						"NORMAL":1,
						"TEXCOORD_0":2
					},
					"indices":3
				}
			]
		}
	],
	"accessors":[
		{
			"bufferView":0,
			"componentType":5126,
			"count":1412,
			"max":[
				1.0110526084899902,
				2.053422212600708,
				0.45896971225738525
			],
			"min":[
				-1.0110526084899902,
				0.022431686520576477,
				-0.57561194896698
			],
			"type":"VEC3"
		},
		{
			"bufferView":1,
			"componentType":5126,
			"count":1412,
			"type":"VEC3"
		},
		{
			"bufferView":2,
			"componentType":5126,
			"count":1412,
			"type":"VEC2"
		},
		{
			"bufferView":3,
			"componentType":5123,
			"count":2250,
			"type":"SCALAR"
		}
	],
	"bufferViews":[
		{
			"buffer":0,
			"byteLength":16944,
			"byteOffset":0,
			"target":34962
		},
		{
			"buffer":0,
			"byteLength":16944,
			"byteOffset":16944,
			"target":34962
		},
		{
			"buffer":0,
			"byteLength":11296,
			"byteOffset":33888,
			"target":34962
		},
		{
			"buffer":0,
			"byteLength":4500,
			"byteOffset":45184,
			"target":34963
		}
	],
	"buffers":[
		{
			"byteLength":49684,
			"uri":"Panda.bin"
		}
	]
}
